<?xml version="1.0" encoding="UTF-8"?>
<svg id="img" xmlns="http://www.w3.org/2000/svg" viewBox="0 0 65.97 14">
  <defs>
    <style>
      .cls-1 {
        fill: #321d0b;
        stroke-width: 0px;
      }
    </style>
  </defs>
  <path class="cls-1" d="M5.19.2h1.8c.86,0,1.18.46,1.38,1.14.16.68,3.22,10.26,3.48,11.32.16.68.08,1.14-.64,1.14h-.82c-.94,0-.98-.66-1.12-1-.12-.3-.34-1.14-.74-2.12H3.49c-.36,1.04-.64,1.82-.7,2.06-.14.7-.32,1.06-1.02,1.06H.62c-.54,0-.74-.48-.56-1.08C.54,11.08,3.62,2.04,3.83,1.32c.18-.66.42-1.12,1.36-1.12ZM3.95,8.76h4.12c-.82-2.66-1.78-5.78-2-6.66h-.12c-.22.96-1.18,4.06-2,6.66Z"/>
  <path class="cls-1" d="M21.81,6.66s3.04.3,3.04,3.22c.02,2.26-1.58,3.92-5.14,3.92h-4.32c-.94,0-.94-.82-.94-1.44.06-1.58.04-10.4.04-10.86-.02-.68-.2-1.3,1.08-1.3h3.76c3.5,0,4.9,1.52,4.9,3.52-.02,2.36-2.42,2.82-2.42,2.82v.12ZM19.47,7.6h-2.32v4.24h2.3c1.52,0,2.64-.66,2.64-2.18,0-1.32-1-2.06-2.62-2.06ZM19.2,2.14h-2.02l-.02,3.7h2.02c1.56,0,2.44-.64,2.44-1.92,0-1.14-.94-1.78-2.42-1.78Z"/>
  <path class="cls-1" d="M33.15,14c-4.16,0-6.16-3-6.14-7,.02-3.94,1.96-7,6.12-7,3.94,0,6.12,3.04,6.12,7-.04,3.98-2.14,7-6.1,7ZM33.12,2.28c-2.54,0-3.36,2.18-3.36,4.7.02,2.48.82,4.74,3.36,4.74s3.32-2.3,3.32-4.74-.84-4.7-3.32-4.7Z"/>
  <path class="cls-1" d="M47.56,14c-4.54,0-5.56-2.52-5.64-6.48-.06-2.66,0-5.44-.02-5.92-.02-.68-.22-1.4.86-1.4h1.02c.92,0,.96.58.94,1.22-.04.68-.08,3.6-.06,6.1.02,2.64.7,4.2,2.86,4.2s2.8-1.48,2.8-4.24c0-2.56.02-5.36.02-5.88,0-.68-.22-1.4.84-1.4h1.02c.94,0,.98.58.96,1.22-.02.68-.08,5.14-.12,6.08-.16,3.92-1.2,6.5-5.48,6.5Z"/>
  <path class="cls-1" d="M65.97,1.04l-.02.86c-.02.52-.1.64-.8.64l-3.26.02c-.1,2.76-.04,9.22-.04,9.62,0,.68.36,1.62-.86,1.62h-1.02c-.92,0-.96-.8-.94-1.42.04-.6.12-7.56.1-9.84-.6,0-2.92-.02-3.2,0-.58.06-.76-.22-.76-.78l.02-.92c0-.52.1-.64.8-.64,0,0,8.12.08,9.26-.02.58-.04.74.32.72.86Z"/>
</svg>