<?xml version="1.0" encoding="UTF-8"?>
<svg id="img" xmlns="http://www.w3.org/2000/svg" width="101.6" height="489.11" viewBox="0 0 101.6 489.11">
  <defs>
    <style>
      .cls-1 {
        fill: #321d0b;
        stroke-width: 0px;
      }

      .cls-2 {
        fill: none;
        stroke: #321d0b;
        stroke-miterlimit: 10;
        stroke-width: 3px;
      }
    </style>
  </defs>
  <path class="cls-2" d="M16.23,2.35c15.91,4.22,63.24,17.14,68.41,18.22,6.53,1.5,11.15,1.77,11.15,12.92v21.76c0,8.57-4.35,10.61-10.34,11.97-5.3,1.22-58.48,14.14-68.54,16.32-6.66,1.36-13.6,3.26-13.6-5.71v-9.38c0-9.66,7.34-10.34,10.61-11.29,1.5-.54,4.49-1.22,7.89-2.31v-22.44c-3.81-1.09-6.8-1.9-7.75-2.04-6.66-.27-10.74-1.36-10.74-9.66V7.52C3.31.86,10.52.86,16.23,2.35ZM40.3,51.72l37.67-7.89v-.82c-6.66-1.09-23.26-4.62-37.67-7.75v16.46Z"/>
  <path class="cls-2" d="M86.95,96.87c10.34-.54,12.92-.68,12.92,12.24,0,14.14-7.21,17-14.69,16.46-3.13-.14-11.02-.54-21.35-.82v1.36c6.12,1.22,15.64,7.34,15.64,20.4,0,14.82-12.24,22.3-29.1,23.26-29.78,1.9-48.42-14.28-48.42-42.84,0-26.66,11.02-28.97,24.21-28.97,11.97,0,56.17-.95,60.79-1.09ZM23.3,130.46c0,5.58,4.22,11.7,20.94,10.88,9.25-.27,12.78-4.08,12.78-9.11,0-4.22-2.99-6.8-4.76-8.02-8.3-.14-17.14-.14-22.03.27-4.22.27-6.94,2.18-6.94,5.98Z"/>
  <path class="cls-2" d="M79.47,217.1c0,25.02-16.86,37.94-38.76,37.67-21.9-.27-38.9-12.65-38.9-37.4s17-37.4,39.17-37.26c21.62.14,38.49,12.38,38.49,36.99ZM40.98,227.7c8.57,0,16.05-2.04,16.05-10.34,0-8.98-7.48-10.61-16.05-10.61s-16.73,1.9-16.73,10.34c0,8.98,7.89,10.61,16.73,10.61Z"/>
  <path class="cls-2" d="M33.37,266.87c11.15.41,22.3,1.9,35.77.95,5.98-.68,10.34.14,10.34,12.65,0,11.56-5.17,16.59-13.06,16.59-11.42,0-21.9-1.63-32.37-1.63-5.3,0-9.38,2.18-9.38,7.89,0,4.35,3.67,6.94,5.44,8.16,9.38.41,21.62.82,29.65.27,2.72-.14,5.3-.41,7.07-.54,5.98-.68,11.29-.27,11.29,9.25v10.34c0,6.94-4.22,8.84-8.7,9.38-2.58.27-5.58.27-8.7.27-21.22-.68-36.31-.82-46.38-.68-5.85,0-12.38,3.81-12.38-12.1,0-9.66,4.08-13.74,8.84-15.37,1.9-.95,4.35-1.22,7.07-1.36v-.95c-5.44-.54-15.91-7.07-15.91-21.22,0-21.49,21.22-22.03,31.42-21.9Z"/>
  <path class="cls-2" d="M57.98,360.98v-4.9c0-2.86,1.09-4.35,3.67-4.22,3.26.27,7.48-.41,10.47-.27,1.63.14,3.26.68,4.49,4.49,2.45,10.47,8.16,11.7,11.83,12.51,2.86.82,4.49,2.04,4.49,5.44,0,4.9,2.04,15.5-5.44,15.1-2.72-.14-6.94-.14-9.38-.14-.14,3.67-.14,8.43,0,12.24,0,3.81-1.5,4.76-3.67,4.76-2.99,0-8.02-.14-12.78-.14-2.31,0-3.54-.68-3.54-3.54v-13.33c-11.02-.27-24.89-.68-30.6-.41-4.35.27-5.44,1.77-5.58,4.9-.14,2.18.41,4.49.41,6.66.14,2.31-1.5,4.49-3.94,4.62l-6.26.54c-2.86.27-4.9-.54-6.39-2.86-2.86-4.49-3.81-14.14-3.81-20.4,0-16.18,9.11-21.49,22.44-21.62,7.07-.14,27.88.68,33.59.54Z"/>
  <path class="cls-1" d="M10.31,429.38c-.13,0-.14-.02-.14-.14,0-.11.04-.58.04-2.14v-.5c-1.42.79-2.47,1.57-3.48,2.48-.2-.16-.47-.34-.72-.45-.14-.07-.22-.11-.22-.18,0-.04.07-.11.18-.18.9-.65,2.03-1.35,3.49-2.02-4.77.02-8.75.14-9.02.14-.13,0-.14-.02-.14-.14v-.9c0-.13.02-.14.14-.14.27,0,4.32.14,8.98.16-2.43-.9-4.07-1.76-5.87-3.06-.13-.09-.18-.14-.18-.2,0-.07.05-.13.2-.18.29-.13.56-.31.74-.49,1.6,1.37,3.4,2.45,5.89,3.53v-.86c0-1.55-.04-2.03-.04-2.14,0-.13.02-.13.14-.13h.7c.13,0,.14,0,.14.13,0,.11-.04.59-.04,2.14v1.17h2.83c-.22-.74-.4-1.51-.56-2.32q-.05-.36.25-.52c.22-.13.38-.25.54-.43.32,2.12,1.04,4.34,1.55,5.4.2.4.29.56.52.81-.22.31-.43.58-.63.77-.13.13-.2.16-.31.16s-.14-.09-.16-.29c-.02-.22-.11-.47-.23-.77-.22-.52-.43-1.12-.65-1.75h-3.15v.76c0,1.57.04,2.03.04,2.14,0,.13-.02.14-.14.14h-.7ZM8,434.48c.11.22.13.23,0,.31-2.21,1.37-4.38,2.34-6.48,3.13-.13.04-.16.04-.25-.16l-.23-.54c-.13-.27-.13-.29.02-.34l1.67-.63c-.49-2.36-.86-4.57-1.31-7.27-.05-.38-.16-.58-.23-.65-.07-.07-.13-.2-.13-.27,0-.09.09-.16.23-.22.34-.13.76-.25,1.17-.34,0,.49.04,1.03.11,1.67,4.03,1.26,7.49,2.09,11.18,2.77.88.16,1.49.22,2.12.2-.07.45-.18.88-.29,1.22-.05.14-.13.25-.22.25-.11,0-.16-.02-.27-.09-.22-.16-.45-.25-.92-.34-4.05-.79-7.69-1.69-11.47-2.85.25,1.96.52,3.66.92,5.53,1.3-.58,2.57-1.22,3.91-1.98.11-.05.14-.05.23.13l.23.47Z"/>
  <path class="cls-1" d="M12.95,448.41c-3.04-.32-6.03-1.24-7.87-2.38-1.31-.77-1.85-1.58-1.85-2.65,0-1.35,1.48-2.63,4.09-2.63,1.66,0,3.42.76,4.66,2.09,1.24,1.33,2,3.13,2,5.4,0,4.03-2.36,6.43-5.8,6.43-2.93,0-5.29-1.82-6.28-5.73-.05-.22-.02-.34.2-.47.18-.11.45-.34.67-.7.7,3.56,2.63,5.62,5.64,5.62,2.66,0,4.56-2.07,4.56-4.65v-.34ZM11.22,443.64c-1.19-1.21-2.66-1.73-3.89-1.73-1.96,0-2.81.81-2.81,1.46,0,.61.4,1.15,1.31,1.67,1.62.92,4.41,1.87,7.04,2.11-.18-1.4-.79-2.65-1.66-3.51Z"/>
  <path class="cls-1" d="M7.08,461.69c-.05.11-.13.13-.23.05-.38-.23-.9-.49-1.4-.49-1.48,0-2.2,1.66-2.2,4.61,0,2.11.2,3.82.52,5.17.04.16.02.22-.13.25-.2.05-.65.13-.94.16-.14.02-.2-.05-.23-.23-.29-1.4-.47-2.99-.47-5.46,0-3.49,1.06-5.6,3.39-5.6.77,0,1.46.29,2.12.74-.13.25-.29.54-.43.79ZM13.82,465.91c0,1.3.05,2.74.16,3.98.02.16-.04.23-.16.25-.23.04-.49.05-.81.05-.2,0-.25-.07-.27-.25-.22-1.51-1.04-3.17-2.05-4.66-.13-.16-.14-.34-.04-.5.16-.22.29-.45.36-.74.77,1.13,1.35,2.16,1.8,3.1-.05-.59-.07-1.39-.07-1.94,0-1.17.09-2.56.32-3.65.02-.11.07-.16.25-.16.23,0,.61.02.92.04-.27,1.21-.41,2.77-.41,4.5Z"/>
  <path class="cls-1" d="M15.53,482.14c-.04.14-.14.22-.23.22-.18,0-.34-.09-.63-.09-.4.02-.76.05-1.15.11-1.3.16-2.5.38-3.64.7.52,1.06,1.03,2.14,1.62,3.21.32.58.5.79.83,1.04-.34.36-.68.68-1.01.92-.22.14-.47.11-.5-.22-.07-.45-.32-1.04-.58-1.58-.61-1.31-1.35-2.86-2.05-4.09-1.06-1.82-2-2.66-3.26-2.66-1.6,0-2,1.51-1.98,4.23.02,1.67.18,3.29.38,4.63.02.16-.02.22-.16.25-.29.05-.63.09-.94.11-.16.02-.23-.05-.25-.25-.16-1.48-.25-2.77-.25-4.79,0-3.11.68-5.37,3.15-5.37,1.73,0,3.06,1.22,4.45,3.51,1.33-.4,3.19-.77,4.61-.95.83-.11,1.28-.2,1.76-.4-.02.54-.07,1.1-.16,1.48Z"/>
</svg>