<?xml version="1.0" encoding="UTF-8"?>
<svg id="img" xmlns="http://www.w3.org/2000/svg" viewBox="0 0 309.8 214">
  <defs>
    <style>
      .cls-1 {
        opacity: .8;
      }

      .cls-1, .cls-2 {
        fill: #f9963b;
        stroke-width: 0px;
      }

      .cls-2 {
        opacity: .5;
      }
    </style>
  </defs>
  <path class="cls-2" d="M64.05,134.39c10.18,16.53,18.39,41.41,35.63,58.12,17.4,16.65,43.81,25.14,67.55,19.98,23.64-4.93,44.37-23.62,63.61-44.78,19.07-21.1,36.48-44.62,35.07-68.46-1.51-23.61-21.93-47.31-42.41-62.6-20.31-15.36-40.62-22.16-57.42-26.66-16.8-4.5-30.03-6.55-42.95-7.76C110.17.84,97.5.3,81.54.04c-16.12-.19-35.53-.09-52.04,8.24C13.16,16.55-.34,32.88,0,49.89c.51,16.94,14.91,34.16,28.24,47.02,13.33,12.86,25.63,20.97,35.81,37.49Z"/>
  <path class="cls-1" d="M198.2,118.45c5.62,9.11,10.16,22.83,19.69,32.05,9.62,9.18,24.21,13.86,37.33,11.02,13.06-2.72,24.52-13.02,35.15-24.69,10.54-11.64,20.16-24.61,19.38-37.75-.83-13.02-12.12-26.08-23.44-34.52-11.23-8.47-22.45-12.22-31.73-14.7-9.28-2.48-16.6-3.61-23.73-4.28-7.17-.76-14.17-1.06-22.99-1.2-8.91-.11-19.64-.05-28.76,4.54-9.03,4.56-16.49,13.57-16.3,22.94.28,9.34,8.24,18.83,15.61,25.92,7.37,7.09,14.16,11.56,19.79,20.67Z"/>
</svg>