<?xml version="1.0" encoding="UTF-8"?>
<svg id="img" xmlns="http://www.w3.org/2000/svg" viewBox="0 0 125.5 17.4">
  <defs>
    <style>
      .cls-1 {
        fill: #fff;
        stroke-width: 0px;
      }
    </style>
  </defs>
  <path class="cls-1" d="M2.8,1.44c-.02.34-.06,1.46-.08,3.3h.18c.4-.76,1.32-1.74,3.08-1.74,2.56,0,3.9,1.98,3.94,5.16.08,3.8-2.18,6.24-5.62,6.24S.08,12.68.08,10.66C.08,8.98.04,1.8.02,1.32-.04.34-.04,0,1.22,0c1.34,0,1.64.68,1.58,1.44ZM2.68,6.96c0,1.3,0,2.9.04,3.76.04.78.48,1.56,1.68,1.56,1.64,0,2.8-1.2,2.76-3.86,0-2.22-.84-3.24-2.14-3.24s-2.1,1.14-2.34,1.78Z"/>
  <path class="cls-1" d="M19.58,14.4c-.98,0-1.36-.66-1.2-1.94h-.12s-.96,1.94-3.28,1.94c-2.16,0-3.34-1.48-3.38-3.3-.04-2.18,1.6-3.44,3.98-3.42,1.16.02,2.32.34,2.68.48v-.98c0-1.28-.9-1.88-2.24-1.88-1.62,0-2.98.72-2.98.72,0,0-1.06-1.32-.18-2.18.54-.48,1.76-.84,3.48-.84,2.84,0,4.46,1.62,4.5,4.04.02,1.66-.06,4.66-.02,5.78.04.8.5,1.58-1.24,1.58ZM16.3,9.26c-1.24,0-2.18.58-2.18,1.62,0,.94.68,1.5,1.66,1.5,1.28,0,2.22-.94,2.46-1.68v-1.18c-.24-.08-1.04-.26-1.94-.26Z"/>
  <path class="cls-1" d="M30.02,6.74s.04-.18.04-.34c0-.52-.38-1.22-1.5-1.22-1.72,0-2.68,1.36-2.68,3.48.02,2.2.94,3.56,2.86,3.56,1.58,0,2.66-.82,2.66-.82,0,0,.7.36.72,1.24.02.92-1.32,1.76-3.58,1.76-3.54,0-5.32-2.14-5.36-5.72-.02-3.2,2-5.68,5.24-5.68,2.74,0,3.72,1.3,3.66,2.56-.04,1.18-1.1,1.62-2.06,1.18Z"/>
  <path class="cls-1" d="M39.78,8.74c1.32-.12,2.42-.76,2.42-2-.02-.92-.8-1.62-1.84-1.62-1.74,0-2.8,2.02-2.8,3.92,0,.78-.02,2.4.02,3.54.02.68.38,1.62-.84,1.62h-1c-.94,0-.96-.82-.94-1.44.06-1.58.1-10.98.1-11.44,0-.96-.12-1.32,1.18-1.32,1.42,0,1.64.74,1.62,1.52,0,.64-.1,2.8-.2,3.64l.2.02c.36-1.04,1.64-2.18,3.56-2.18,2.1,0,3.64,1.32,3.66,3.28.04,2.48-2.48,3.18-2.48,3.18.28.64,1.52,2.5,2.2,3.44.26.4.54.7.54.7,0,0-.28.8-1.58.8-1,0-1.46-.38-1.82-.92-.58-.84-1.58-3.28-2.16-4.44l.16-.3Z"/>
  <path class="cls-1" d="M52.88,3.92c0-.16.08-.4.48-.46,1.64-.1,1.9-1.24,1.96-1.88.04-.34.16-.54.6-.54.5,0,1.4-.14,1.34.62-.02.48-.02,1.1-.02,1.54.44.04,1.82.04,2.6,0,.42-.02.56.18.56.42,0,.36-.02.82-.02,1.24,0,.24-.06.42-.44.42-.84-.02-2.64,0-2.74,0-.08,1.62-.1,4.14-.08,5.72,0,1.02.28,1.26,1,1.26.5,0,.94-.16,1.3-.24.4-.12.62.08.66.34l.12.76c.04.36-.02.58-.34.76-.6.34-1.72.52-2.54.52-2.12,0-2.96-1.04-2.94-3.18,0-1.22.1-5.3.1-5.9h-1.06c-.38,0-.52-.1-.52-.44.02-.28-.02-.64-.02-.96Z"/>
  <path class="cls-1" d="M66.98,14.42c-3.42,0-5.16-2.48-5.12-5.78.04-3.14,1.7-5.64,5.1-5.64s5.2,2.48,5.16,5.66c-.04,3.26-1.74,5.76-5.14,5.76ZM66.98,5.18c-2.02,0-2.46,1.62-2.46,3.46s.46,3.6,2.44,3.6,2.48-1.7,2.48-3.6-.58-3.46-2.46-3.46Z"/>
  <path class="cls-1" d="M81.58,17.2c-.84,0-.98-.42-.94-1.08.04-.68.18-8.82.08-11.54-.02-.5-.3-1.24.28-1.46.2-.06.64-.12.98-.12,1.08,0,1.32.84,1.2,1.86h.12s.7-1.86,3.16-1.86c2.3,0,4.16,2.1,4.2,5.98.02,3.3-1.68,5.42-4,5.42-1.98,0-3-1.54-3.16-2.2h-.14c.02,1.5.08,3.36.08,3.92.04.9-.16,1.08-1.04,1.08h-.82ZM83.36,8.3v1.66c.12.4.86,2.24,2.4,2.24,1.1,0,2.14-.84,2.14-3.28s-.98-3.8-2.28-3.8c-1.2,0-2.26,1.08-2.26,3.18Z"/>
  <path class="cls-1" d="M100.32,14.4c-.98,0-1.36-.66-1.2-1.94h-.12s-.96,1.94-3.28,1.94c-2.16,0-3.34-1.48-3.38-3.3-.04-2.18,1.6-3.44,3.98-3.42,1.16.02,2.32.34,2.68.48v-.98c0-1.28-.9-1.88-2.24-1.88-1.62,0-2.98.72-2.98.72,0,0-1.06-1.32-.18-2.18.54-.48,1.76-.84,3.48-.84,2.84,0,4.46,1.62,4.5,4.04.02,1.66-.06,4.66-.02,5.78.04.8.5,1.58-1.24,1.58ZM97.04,9.26c-1.24,0-2.18.58-2.18,1.62,0,.94.68,1.5,1.66,1.5,1.28,0,2.22-.94,2.46-1.68v-1.18c-.24-.08-1.04-.26-1.94-.26Z"/>
  <path class="cls-1" d="M111.72,4.8l-.02.1c.56.22,1.84.68,1.84,2.32.02,2.22-2.08,3.26-4.9,3.26-.88,0-1.26.24-1.26.64s.36.62,1.14.62c.3,0,1.86-.06,2.38-.06,2.16,0,3.5.82,3.5,2.42,0,1.86-1.66,3.3-5.24,3.3-3,0-4.92-.76-4.94-2.4,0-1.56,1.96-1.74,1.96-1.74v-.1s-1.1-.14-1.1-1.4c0-1.64,1.92-1.76,1.92-1.76v-.1s-2.9-.32-2.9-2.98c-.02-1.94,1.2-3.92,5.08-3.92h5.04s.72,1.92-.88,1.92c-.64.02-1.16-.04-1.62-.12ZM106.54,6.9c0,1.08.8,1.7,2.12,1.7,1.86,0,2.46-.92,2.46-1.82s-.66-1.82-2-1.82c-2.28,0-2.6,1.08-2.58,1.94ZM106.66,14.38c0,.7.5,1.28,2.5,1.28s2.58-.6,2.58-1.26c0-.36-.22-.8-1.2-.8-.62-.02-1.64.04-2.1.04-.7,0-1.14-.06-1.32-.12-.08.1-.46.44-.46.86Z"/>
  <path class="cls-1" d="M118.5,9.14l-.04.06c.02,1.58.92,3.1,2.92,3.1,1.58,0,2.8-.84,3-.96,0,0,.4.28.56.82.16.62-.02,1.08-.48,1.38-.38.24-1.58.86-3.24.86-3.76,0-5.3-2.5-5.3-5.76s1.86-5.64,5.14-5.64c2.88,0,4.44,1.9,4.44,4.06,0,1.76-.5,2.08-1.24,2.08h-5.76ZM122.96,7.62s.06-.26.06-.56c0-1.28-.64-2-2.02-2-1.94,0-2.48,1.62-2.48,2.56h4.44Z"/>
</svg>