<?xml version="1.0" encoding="UTF-8"?>
<svg id="img" xmlns="http://www.w3.org/2000/svg" viewBox="0 0 530.39 128.84">
  <defs>
    <style>
      .cls-1 {
        fill: #321d0b;
        stroke-width: 0px;
      }

      .cls-2 {
        fill: none;
        stroke: #321d0b;
        stroke-miterlimit: 10;
        stroke-width: 3px;
      }
    </style>
  </defs>
  <path class="cls-2" d="M44.87,1.73c15.23,0,23.39,5.3,25.84,7.21,2.45,2.04,5.58,5.85.68,14.55-3.13,5.85-6.53,7.89-6.53,7.89,0,0-5.98-5.85-17.27-5.85-13.46,0-18.22,10.61-18.22,23.66s5.98,23.67,17.68,23.67c7.07,0,11.56-2.72,13.6-4.08,2.72-1.77,6.26-3.26,8.84,1.63l5.17,9.66c1.63,2.99,2.99,5.3-.41,8.16-4.62,4.08-14.42,8.7-28.29,8.7C16.72,96.93,1.49,76.4,1.89,49.33,2.44,22.4,16.04,1.73,44.87,1.73Z"/>
  <path class="cls-2" d="M121.98,19.41c25.02,0,37.94,16.86,37.67,38.76s-12.65,38.9-37.4,38.9-37.4-17-37.26-39.17c.14-21.62,12.38-38.49,36.99-38.49ZM132.59,57.9c0-8.57-2.04-16.05-10.34-16.05-8.98,0-10.61,7.48-10.61,16.05s1.9,16.73,10.34,16.73c8.98,0,10.61-7.89,10.61-16.73Z"/>
  <path class="cls-2" d="M172.44,78.3c.68-21.35.82-36.45.68-46.51,0-5.85-3.67-12.38,12.24-12.38,9.52,0,13.46,4.08,15.23,8.84.82,2.04,1.22,4.35,1.22,7.07h.95c.54-5.3,7.21-15.91,21.62-15.91,21.35,0,22.17,21.22,22.03,31.42-.27,11.15-2.04,22.3-.95,35.77.54,5.98-.14,10.34-12.65,10.34-11.56,0-16.59-5.17-16.59-13.06,0-11.42,1.63-21.9,1.63-32.23,0-5.44-2.45-9.38-8.16-9.38-4.49,0-7.07,3.67-8.43,5.44-.27,9.38-.54,21.49-.14,29.51.14,2.72.27,5.3.54,7.07.54,6.12.27,11.29-9.11,11.29h-10.61c-6.94,0-8.7-4.22-9.38-8.7-.27-2.45-.14-5.58-.14-8.57Z"/>
  <path class="cls-2" d="M266.28,40.9h-4.9c-2.86,0-4.35-1.09-4.22-3.67.27-3.26-.41-7.48-.27-10.47.14-1.63.68-3.26,4.49-4.49,10.47-2.45,11.7-8.16,12.51-11.83.82-2.86,2.04-4.49,5.44-4.49,4.9,0,15.5-2.04,15.1,5.44-.14,2.72-.14,6.94-.14,9.38,3.67.14,8.43.14,12.24,0,3.81,0,4.76,1.5,4.76,3.67,0,2.99-.14,8.02-.14,12.78,0,2.31-.68,3.54-3.54,3.54h-13.33c-.27,11.02-.68,24.89-.41,30.6.27,4.35,1.77,5.44,4.9,5.58,2.18.14,4.49-.41,6.66-.41,2.31-.14,4.49,1.5,4.62,3.94l.54,6.26c.27,2.86-.54,4.9-2.86,6.39-4.49,2.86-14.14,3.81-20.4,3.81-16.18,0-21.49-9.11-21.62-22.44-.14-7.07.68-27.88.54-33.59Z"/>
  <path class="cls-2" d="M346.92,51.37c4.9.14,10.34,1.36,13.46,2.31v-3.67c0-5.03-3.4-7.75-11.02-7.75-9.38,0-18.63,2.86-18.63,2.86,0,.14-8.3-12.92-1.36-19.86,3.67-3.4,11.7-5.85,23.66-5.85,21.22,0,33.86,11.42,34.82,27.61.54,10.34-.68,27.2-.54,34.68,0,7.07,4.9,15.23-12.1,15.23-7.62,0-13.06-2.99-11.56-15.37h-.95s-2.72,15.37-20.26,15.37c-13.33,0-22.3-9.11-23.12-21.9-1.09-16.05,11.7-24.48,27.61-23.66ZM350.32,78.17c6.66,0,9.66-6.26,10.2-10.34v-4.22c-.95-.27-3.67-.82-6.39-.82-6.39,0-11.7,2.99-11.42,8.43,0,4.08,3.13,6.94,7.62,6.94Z"/>
  <path class="cls-2" d="M437.09,19.41c19.31,0,29.1,9.38,27.88,21.62-.82,10.06-11.83,12.51-19.99,8.7,0,0,.27-1.22.14-2.58-.14-2.72-2.18-5.58-6.66-5.58-7.89,0-11.15,6.94-11.02,16.32.41,9.93,5.17,16.32,15.91,16.32,9.11,0,15.23-4.35,15.23-4.35,0,0,6.94,4.22,7.34,12.1.41,8.7-8.84,14.96-26.25,14.96-27.06,0-38.76-16.46-39.58-39.03-.68-21.76,13.6-38.49,36.99-38.49Z"/>
  <path class="cls-2" d="M483.74,40.9h-4.9c-2.86,0-4.35-1.09-4.22-3.67.27-3.26-.41-7.48-.27-10.47.14-1.63.68-3.26,4.49-4.49,10.47-2.45,11.7-8.16,12.51-11.83.82-2.86,2.04-4.49,5.44-4.49,4.9,0,15.5-2.04,15.1,5.44-.14,2.72-.14,6.94-.14,9.38,3.67.14,8.43.14,12.24,0,3.81,0,4.76,1.5,4.76,3.67,0,2.99-.14,8.02-.14,12.78,0,2.31-.68,3.54-3.54,3.54h-13.33c-.27,11.02-.68,24.89-.41,30.6.27,4.35,1.77,5.44,4.9,5.58,2.18.14,4.49-.41,6.66-.41,2.31-.14,4.49,1.5,4.62,3.94l.54,6.26c.27,2.86-.54,4.9-2.86,6.39-4.49,2.86-14.14,3.81-20.4,3.81-16.18,0-21.49-9.11-21.62-22.44-.14-7.07.68-27.88.54-33.59Z"/>
  <path class="cls-1" d="M217.49,115.64c0-.77-.05-1.28-.14-1.69.56.05,1.15.16,1.44.27.14.05.22.14.22.27,0,.07-.04.14-.09.23-.09.18-.2.4-.22.92-.04.49-.05.99-.07,1.57.9-.18,1.78-.43,2.65-.76.14-.05.22-.04.23.13.04.25.07.5.07.76,0,.16-.05.18-.2.23-.94.32-1.73.54-2.81.74-.04,1.17-.04,2.36-.02,3.55,1.71-.83,3.21-1.37,4.7-1.37,2.21,0,3.53,1.37,3.53,3.19,0,2.18-1.48,3.31-3.75,3.31-.49,0-1.03-.07-1.44-.22-.18-.05-.23-.18-.25-.47-.04-.23-.11-.5-.29-.83.67.31,1.33.38,1.93.38,1.44,0,2.54-.72,2.54-2.21,0-1.31-.88-2.18-2.48-2.18-1.06,0-2.48.47-4.48,1.51,0,.65.04,1.64.09,2.75.04.85.11,1.42.11,1.71,0,.25-.02.36-.2.41-.22.05-.56.13-.76.13-.16,0-.25-.18-.68-.65-.65-.7-1.55-1.33-2.61-2.02-.27.16-.45.29-.61.4-.09.07-.16.13-.25.13-.11,0-.18-.07-.27-.2-.16-.23-.36-.63-.56-1.1.5-.13,1.04-.29,1.75-.63.79-.38,1.82-.96,2.92-1.58-.02-1.28-.02-2.61-.02-3.85-1.21.14-2.03.2-3.29.2-.23,0-.31-.09-.34-.27-.05-.22-.09-.5-.11-.85,1.1.05,2.34.02,3.75-.14.02-.65.04-1.15.04-1.76ZM215.16,124.86c.86.5,1.48.88,2.23,1.3.13.07.18.04.18-.13-.04-.77-.05-1.57-.11-2.56-.83.47-1.44.86-2.3,1.39ZM223.97,116.13c.07-.13.13-.16.25-.14,1.4.29,2.68.9,3.56,1.89.07.09.07.14,0,.23-.14.22-.38.54-.58.74-.09.09-.16.07-.23,0-.95-1.01-2.03-1.67-3.44-1.96.13-.27.27-.5.43-.76Z"/>
  <path class="cls-1" d="M237.31,117.32c0,1.12.04,1.57.04,1.66,0,.13-.02.14-.14.14-.09,0-.54-.04-1.8-.04h-3.15v5.91c0,2.57.04,3.64.04,3.75,0,.13-.02.14-.14.14h-.85c-.13,0-.14-.02-.14-.14,0-.11.04-1.17.04-3.75v-7.65c0-2.58-.04-3.67-.04-3.78,0-.13.02-.14.14-.14.11,0,.7.04,2.03.04h2.07c1.26,0,1.71-.04,1.8-.04.13,0,.14.02.14.14,0,.11-.04.56-.04,1.66v2.11ZM236.28,114.33h-4.03v1.46h4.03v-1.46ZM236.28,116.65h-4.03v1.57h4.03v-1.57ZM241.18,123.75c0,2.29.04,2.66.04,2.75,0,.13-.02.14-.14.14h-.76c-.14,0-.16-.02-.16-.14v-.88h-3.89v1.21c0,.13-.02.14-.14.14h-.77c-.13,0-.14-.02-.14-.14,0-.09.04-.49.04-2.86v-1.26c0-1.26-.04-1.67-.04-1.78,0-.13.02-.14.14-.14.11,0,.52.04,1.85.04h2.02c1.31,0,1.75-.04,1.85-.04.13,0,.14.02.14.14,0,.11-.04.52-.04,1.48v1.35ZM240.15,121.71h-3.89v3.01h3.89v-3.01ZM245.43,124.3c0,.99.05,1.93.05,2.61,0,.79-.13,1.1-.47,1.37-.34.29-.79.36-2.23.36q-.32,0-.41-.34c-.09-.34-.18-.56-.32-.79.47.05.88.07,1.37.07.79,0,.96-.14.96-.86v-7.63h-3.22c-1.4,0-1.85.04-1.94.04-.14,0-.16-.02-.16-.14,0-.09.04-.43.04-1.55v-2.32c0-1.1-.04-1.44-.04-1.55,0-.13.02-.14.16-.14.09,0,.54.04,1.94.04h2.23c1.39,0,1.86-.04,1.95-.04.13,0,.14.02.14.14,0,.11-.04.83-.04,2.58v8.17ZM244.36,114.33h-4.27v1.46h4.27v-1.46ZM244.36,116.65h-4.27v1.57h4.27v-1.57Z"/>
  <path class="cls-1" d="M251.22,115.75c.11.05.16.13.16.2,0,.09-.04.2-.07.32-.07.22-.14.72-.14,1.66,0,1.15.02,2.25.25,4.09.27,2.12,1.04,3.67,1.91,3.67.72,0,1.41-1.15,1.93-2.83.2.47.36.68.59.9.14.13.2.27.14.45-.5,1.46-1.48,2.83-2.68,2.83-1.51,0-2.65-2.09-3.04-4.92-.25-1.8-.32-3.83-.32-5.02,0-.68-.02-1.12-.14-1.73.5.05,1.08.22,1.42.38ZM259.81,117.14c.11-.05.2-.07.27,0,1.84,1.6,3.06,3.82,3.51,6.23.02.13-.04.18-.13.23-.27.18-.52.31-.83.41-.13.04-.22-.02-.23-.14-.5-2.75-1.64-4.66-3.38-6.25.34-.23.61-.4.79-.49Z"/>
  <path class="cls-1" d="M274.8,113.3c2.18,3.02,4.95,4.97,8.07,6.12-.2.2-.38.45-.5.72-.09.2-.14.29-.23.29-.07,0-.16-.04-.29-.11-3.12-1.31-5.76-3.49-7.62-6.19-1.93,2.81-4.38,4.77-7.33,6.3-.14.07-.22.11-.27.11-.09,0-.13-.07-.23-.25-.16-.27-.34-.47-.56-.65,3.49-1.55,5.94-3.82,7.38-6.09.27-.41.38-.65.5-1.03.43.07.81.14,1.12.22.18.05.25.11.25.2s-.04.14-.13.22l-.16.14ZM279.43,125.53c0,2.59.04,3.01.04,3.1,0,.13-.02.14-.16.14h-.85c-.13,0-.14-.02-.14-.14v-.74h-7.99v.83c0,.11-.02.13-.14.13h-.86c-.13,0-.14-.02-.14-.13s.04-.52.04-3.13v-1.46c0-1.48-.04-1.93-.04-2.02,0-.13.02-.14.14-.14.11,0,.72.04,2.49.04h5.04c1.76,0,2.38-.04,2.47-.04.14,0,.16.02.16.14,0,.09-.04.54-.04,1.76v1.66ZM278.31,122.97h-7.99v3.94h7.99v-3.94ZM277.99,119.55c0,.13-.02.14-.14.14-.09,0-.59-.04-2.11-.04h-2.88c-1.51,0-2,.04-2.11.04-.13,0-.14-.02-.14-.14v-.77c0-.13.02-.14.14-.14.11,0,.59.04,2.11.04h2.88c1.51,0,2.02-.04,2.11-.04.13,0,.14.02.14.14v.77Z"/>
  <path class="cls-1" d="M290.15,113.52c.2.07.22.23.13.45-.09.18-.13.47-.16.7-.04.81-.09,1.44-.13,2.3.13-.05.23-.09.29-.14.04-.04.09-.05.13-.05.07,0,.18.07.34.23.14.14.23.29.23.4s-.07.2-.23.38c-.29.36-.56.74-.88,1.3-.02.4-.02.68-.02,1.01,1.75-1.49,3.57-2.3,5.47-2.3,2.72,0,4.29,1.85,4.29,4.25,0,2.21-1.49,4.47-4.77,5.44-.23.09-.4.04-.52-.13-.23-.25-.47-.45-.86-.65,1.73-.43,2.86-1.08,3.76-2,.74-.79,1.1-1.71,1.1-2.74,0-1.91-1.17-3.15-3.01-3.15s-3.51.74-5.46,2.5c-.02,2.29.02,4.52.05,6.88,0,.11-.05.14-.14.16-.16.02-.63.04-.95.04-.11,0-.14-.04-.14-.16.04-2.21.05-4.12.07-6.52-1.08,1.51-2.05,2.93-3.06,4.36-.11.13-.2.14-.31.07-.22-.2-.49-.43-.67-.65-.09-.09-.07-.18.02-.29,1.35-1.62,2.65-3.35,4.02-5.28.02-.59.05-1.15.05-1.58-.7.2-1.53.47-2.14.68-.4.14-.61.36-.76.38-.11.02-.18-.07-.31-.23-.14-.23-.34-.59-.5-.99.41-.04.74-.07,1.19-.18.77-.22,1.49-.4,2.54-.7.04-.7.04-1.37.07-2.43,0-.61-.02-1.12-.14-1.58.7.07,1.12.13,1.42.23Z"/>
  <path class="cls-1" d="M312.78,114.94c0-.58-.04-1.01-.16-1.5.67.09,1.1.16,1.4.27.18.05.23.11.23.23,0,.11-.05.22-.11.29-.09.14-.13.38-.14.65-.02,1.08-.04,2.04-.07,3.08,1.37-.11,2.52-.2,3.71-.23.14,0,.18.04.18.18.02.25.02.56,0,.79,0,.16-.04.22-.18.22-1.24,0-2.43.05-3.76.16-.05,1.17-.13,2.29-.22,2.97-.18,1.31-.83,1.8-1.89,1.8-.49,0-.9-.05-1.35-.13-.16-.04-.2-.13-.22-.32-.04-.32-.14-.65-.29-1.01.63.18,1.19.29,1.75.29s.77-.29.86-1.03c.09-.68.16-1.64.18-2.48-1.69.14-3.49.36-5.15.61-.04,1.91-.05,3.6.04,4.63.13,1.49.59,1.89,3.24,1.89,1.51,0,3.02-.13,4.36-.32.22-.02.27.02.29.16.04.23.05.65.05.85,0,.18-.04.23-.16.25-1.04.14-2.74.25-4.36.25-3.47,0-4.34-.7-4.56-2.86-.09-.79-.09-2.75-.09-4.66-.95.14-1.73.27-2.56.45-.25.05-.52.13-.83.23-.18.05-.29.02-.36-.14-.11-.29-.25-.7-.32-1.12.4,0,.85-.04,1.33-.11.95-.13,1.85-.31,2.74-.45.02-.7.02-1.37.02-2.03-.02-.76-.04-1.12-.22-1.76.52.04,1.06.13,1.42.23.14.04.25.16.25.27,0,.13-.07.25-.11.38-.09.25-.11.47-.13.79-.04.74-.04,1.3-.05,1.96,1.55-.2,3.53-.43,5.19-.59.04-1.1.04-2.18.04-3.13Z"/>
</svg>