<?xml version="1.0" encoding="UTF-8"?>
<svg id="img" xmlns="http://www.w3.org/2000/svg" viewBox="0 0 89.5 14">
  <defs>
    <style>
      .cls-1 {
        fill: #321d0b;
        stroke-width: 0px;
      }
    </style>
  </defs>
  <path class="cls-1" d="M10.55,2.62c-.32.5-.62.66-.62.66,0,0-1-.98-3.02-.98-2.62,0-3.76,2.1-3.76,4.68s1.34,4.7,3.74,4.7c1.22,0,1.98-.4,2.4-.7.3-.2.62-.36.9.14l.52.92c.18.3.32.56-.04.86-.52.42-1.8,1.1-3.84,1.1C2.53,14,.41,11,.43,7,.45,3.02,2.51,0,6.77,0c2.16,0,3.28.66,3.66.94.34.24.76.76.12,1.68Z"/>
  <path class="cls-1" d="M19.33,14c-4.16,0-6.16-3-6.14-7,.02-3.94,1.96-7,6.12-7,3.94,0,6.12,3.04,6.12,7-.04,3.98-2.14,7-6.1,7ZM19.31,2.28c-2.54,0-3.36,2.18-3.36,4.7.02,2.48.82,4.74,3.36,4.74s3.32-2.3,3.32-4.74-.84-4.7-3.32-4.7Z"/>
  <path class="cls-1" d="M37.89.2h.98c.92,0,.92.8.92,1.42-.02.7-.14,9.56-.06,10.56.02.68.36,1.62-.88,1.62h-.96c-.82,0-.92-.74-.94-1.28-.02-.7-4.86-6.54-5.9-8.1h-.18c0,1.34.18,7.38.22,7.76.02.68.34,1.62-.88,1.62h-1.02c-.92,0-.94-.82-.92-1.44.06-1.58.04-10.4.04-10.86,0-.68-.12-1.3.98-1.3h1.36l6.28,8.24h.16c-.04-.9-.12-7.32-.12-7.54-.02-.34.04-.7.92-.7Z"/>
  <path class="cls-1" d="M52.81,1.04l-.02.86c-.02.52-.1.64-.8.64l-3.26.02c-.1,2.76-.04,9.22-.04,9.62,0,.68.36,1.62-.86,1.62h-1.02c-.92,0-.96-.8-.94-1.42.04-.6.12-7.56.1-9.84-.6,0-2.92-.02-3.2,0-.58.06-.76-.22-.76-.78l.02-.92c0-.52.1-.64.8-.64,0,0,8.12.08,9.26-.02.58-.04.74.32.72.86Z"/>
  <path class="cls-1" d="M58.39.2h1.8c.86,0,1.18.46,1.38,1.14.16.68,3.22,10.26,3.48,11.32.16.68.08,1.14-.64,1.14h-.82c-.94,0-.98-.66-1.12-1-.12-.3-.34-1.14-.74-2.12h-5.04c-.36,1.04-.64,1.82-.7,2.06-.14.7-.32,1.06-1.02,1.06h-1.14c-.54,0-.74-.48-.56-1.08.48-1.64,3.56-10.68,3.76-11.4.18-.66.42-1.12,1.36-1.12ZM57.15,8.76h4.12c-.82-2.66-1.78-5.78-2-6.66h-.12c-.22.96-1.18,4.06-2,6.66Z"/>
  <path class="cls-1" d="M76.67,2.62c-.32.5-.62.66-.62.66,0,0-1-.98-3.02-.98-2.62,0-3.76,2.1-3.76,4.68s1.34,4.7,3.74,4.7c1.22,0,1.98-.4,2.4-.7.3-.2.62-.36.9.14l.52.92c.18.3.32.56-.04.86-.52.42-1.8,1.1-3.84,1.1-4.3,0-6.42-3-6.4-7,.02-3.98,2.08-7,6.34-7,2.16,0,3.28.66,3.66.94.34.24.76.76.12,1.68Z"/>
  <path class="cls-1" d="M89.49,1.04l-.02.86c-.02.52-.1.64-.8.64l-3.26.02c-.1,2.76-.04,9.22-.04,9.62,0,.68.36,1.62-.86,1.62h-1.02c-.92,0-.96-.8-.94-1.42.04-.6.12-7.56.1-9.84-.6,0-2.92-.02-3.2,0-.58.06-.76-.22-.76-.78l.02-.92c0-.52.1-.64.8-.64,0,0,8.12.08,9.26-.02.58-.04.74.32.72.86Z"/>
</svg>