<?xml version="1.0" encoding="UTF-8"?>
<svg id="img" xmlns="http://www.w3.org/2000/svg" viewBox="0 0 206.07 13.93">
  <defs>
    <style>
      .cls-1 {
        fill: #321d0b;
        stroke-width: 0px;
      }
    </style>
  </defs>
  <path class="cls-1" d="M13.63,12.56c.37.19.77.32,1.26.32.85,0,1.33-.61,1.79-2.22h-.32c-.37,0-.53-.11-.66-.46-.29-.83-2.77-6.4-3.01-6.98-.11-.3-.19-.66.27-.66h.35c.48,0,.51.18.62.48.21.53,2.35,5.52,2.88,6.9h.1c.48-1.57,1.71-5.7,2.05-6.87.1-.32.13-.51.59-.51h.45c.43,0,.4.27.29.64-.3,1.04-1.84,5.76-2.4,7.55-.62,1.99-1.26,3.17-2.98,3.17-.67,0-1.25-.14-1.6-.34-.32-.16-.29-.26-.24-.5l.1-.37c.06-.27.26-.26.45-.16Z"/>
  <path class="cls-1" d="M22.19,3.02c0-.37,0-.62.53-.62.61,0,.77.26.77.64-.03,1.55-.08,3.23-.08,5.06,0,1.42.62,2.37,1.97,2.37,1.58,0,2.45-1.3,2.77-2.08,0-1.17.03-2.82.03-3.68,0-.59,0-1.2-.02-1.33-.03-.54.03-.82.43-.82h.42c.45,0,.48.37.46.75-.02.3-.05,1.01-.05,1.65-.02,1.89-.05,5.52-.05,5.91,0,.34.13.66-.54.66-.61,0-.74-.38-.74-.83,0-.26.05-.54.05-.8h-.11c-.13.27-1.02,1.63-2.85,1.63-2.16,0-3.07-1.28-3.09-3.44,0-1.28.08-3.49.1-5.06Z"/>
  <path class="cls-1" d="M32.43.45c-.02-.75.32-.86.77-.86s.82.1.83.86c.02.75-.34.83-.77.83-.5,0-.82-.08-.83-.83ZM32.54,8.96c.03-1.87.02-4.67.02-5.7,0-.35-.1-.7.54-.7s.77.11.74.58c-.08,2.1-.05,4.77-.05,6.08,0,.59,0,1.14.02,1.33.03.51-.03.82-.43.82h-.38c-.48,0-.5-.37-.48-.77.02-.3.03-.99.03-1.63Z"/>
  <path class="cls-1" d="M42.37,8.96c-.02-1.9.02-5.47.02-5.86,0-.35-.14-.7.53-.7s.77.4.77.82c0,.19-.03.51-.03.83h.1c.11-.27.75-1.65,2.64-1.65,1.49,0,2.26.69,2.64,1.65h.08c.13-.27.98-1.65,2.77-1.65,2.18,0,3.01,1.46,3.01,3.44,0,1.28-.08,2.67-.06,4.9-.02.37.18.78-.54.78s-.75-.34-.75-.7c0-1.55.03-3.15.03-4.99,0-1.34-.61-2.37-1.87-2.37s-2.06.86-2.42,1.55c.02.18.05.48.05.85,0,1.3-.06,2.72-.06,4.93,0,.43-.08.58-.43.58h-.43c-.43,0-.46-.26-.46-.56,0-1.31.1-3.57.1-4.98s-.53-2.37-1.81-2.37c-1.6,0-2.27,1.3-2.56,2.06-.02,1.2-.05,2.83-.05,3.7,0,.59,0,1.15.02,1.33.03.56-.03.82-.43.82h-.42c-.43,0-.46-.37-.45-.75.02-.3.05-1.01.05-1.65Z"/>
  <path class="cls-1" d="M60.29,6.15c1.2,0,2.32.35,2.54.46v-.98c0-1.46-.83-2.1-2.14-2.1-1.52,0-2.58.72-2.58.72-.05-.03-.66-.69-.1-1.17.43-.37,1.42-.69,2.8-.69,2.14,0,3.28,1.26,3.25,3.23-.02,1.41-.05,4.19.02,5.09.03.48.18.8-.64.8-.66,0-.67-.69-.58-1.39h-.08s-1.15,1.39-2.9,1.39c-1.92,0-2.79-1.28-2.75-2.71.03-1.62,1.22-2.64,3.15-2.67ZM60.21,10.48c1.25,0,2.29-.82,2.61-1.52v-1.47c-.22-.1-1.14-.37-2.26-.37-1.25,0-2.13.59-2.15,1.67,0,1.02.66,1.7,1.79,1.7Z"/>
  <path class="cls-1" d="M67.5,3.63h-1.1c-.3,0-.34-.08-.34-.29v-.38c0-.1.05-.26.26-.26,1.36,0,1.54-.71,1.55-1.5,0-.21.1-.37.42-.37.26,0,.58,0,.56.4-.02.42-.03.94-.03,1.33.29.03,1.81.03,2.58,0,.26,0,.34.11.34.27v.51c0,.13-.03.27-.3.27-.82-.02-2.74,0-2.66,0-.06,1.3-.08,3.68-.08,5.41,0,1.07.27,1.41,1.01,1.41.51,0,1.01-.19,1.31-.34.29-.14.42-.05.48.14l.08.35c.06.24.02.35-.18.46-.4.24-1.18.46-1.87.46-1.5,0-2.14-.67-2.11-2.45.02-1.1.1-5.12.1-5.44Z"/>
  <path class="cls-1" d="M74.01,9.67s.86.82,2.38.82c1.3,0,2.26-.51,2.26-1.49,0-.74-.74-1.09-1.57-1.36l-1.47-.51c-1.34-.46-2-1.07-2-2.27,0-1.39,1.17-2.45,3.2-2.45,1.84,0,2.48.58,2.64.83.19.34-.05.82-.27.94,0,0-.88-.72-2.37-.72-1.01,0-1.94.45-1.94,1.39,0,.59.43.94,1.25,1.22l1.44.48c1.57.53,2.32,1.07,2.32,2.37,0,1.49-1.17,2.61-3.49,2.61-1.79,0-2.61-.61-2.69-1.07-.05-.4.18-.72.3-.78Z"/>
  <path class="cls-1" d="M82.33,3.02c0-.37,0-.62.53-.62.61,0,.77.26.77.64-.03,1.55-.08,3.23-.08,5.06,0,1.42.62,2.37,1.97,2.37,1.58,0,2.45-1.3,2.77-2.08,0-1.17.03-2.82.03-3.68,0-.59,0-1.2-.02-1.33-.03-.54.03-.82.43-.82h.42c.45,0,.48.37.46.75-.02.3-.05,1.01-.05,1.65-.02,1.89-.05,5.52-.05,5.91,0,.34.13.66-.54.66-.61,0-.74-.38-.74-.83,0-.26.05-.54.05-.8h-.11c-.13.27-1.02,1.63-2.85,1.63-2.16,0-3.07-1.28-3.09-3.44,0-1.28.08-3.49.1-5.06Z"/>
  <path class="cls-1" d="M92.45,8.96c-.02-1.9.02-5.47.02-5.86,0-.35-.14-.7.53-.7s.77.4.77.82c0,.19-.03.51-.03.83h.1c.11-.27.75-1.65,2.64-1.65,1.49,0,2.26.69,2.64,1.65h.08c.13-.27.98-1.65,2.77-1.65,2.18,0,3.01,1.46,3.01,3.44,0,1.28-.08,2.67-.06,4.9-.02.37.18.78-.54.78s-.75-.34-.75-.7c0-1.55.03-3.15.03-4.99,0-1.34-.61-2.37-1.87-2.37s-2.06.86-2.42,1.55c.02.18.05.48.05.85,0,1.3-.06,2.72-.06,4.93,0,.43-.08.58-.43.58h-.43c-.43,0-.46-.26-.46-.56,0-1.31.1-3.57.1-4.98s-.53-2.37-1.81-2.37c-1.6,0-2.27,1.3-2.56,2.06-.02,1.2-.05,2.83-.05,3.7,0,.59,0,1.15.02,1.33.03.56-.03.82-.43.82h-.42c-.43,0-.46-.37-.45-.75.02-.3.05-1.01.05-1.65Z"/>
  <path class="cls-1" d="M111.18,2.4c2.59,0,3.95,1.99,3.92,4.5-.03,2.64-1.33,4.64-3.91,4.64s-3.94-1.97-3.91-4.63c.05-2.5,1.3-4.51,3.89-4.51ZM113.82,6.91c0-1.87-.74-3.46-2.62-3.46-2.03,0-2.61,1.6-2.61,3.46s.58,3.57,2.59,3.57,2.64-1.68,2.64-3.57Z"/>
  <path class="cls-1" d="M117.98,3.63h-1.1c-.3,0-.34-.08-.34-.29v-.38c0-.1.05-.26.26-.26,1.36,0,1.54-.71,1.55-1.5,0-.21.1-.37.42-.37.26,0,.58,0,.56.4-.02.42-.03.94-.03,1.33.29.03,1.81.03,2.58,0,.26,0,.34.11.34.27v.51c0,.13-.03.27-.3.27-.82-.02-2.74,0-2.66,0-.06,1.3-.08,3.68-.08,5.41,0,1.07.27,1.41,1.01,1.41.51,0,1.01-.19,1.31-.34.29-.14.42-.05.48.14l.08.35c.06.24.02.35-.18.46-.4.24-1.18.46-1.87.46-1.5,0-2.14-.67-2.11-2.45.02-1.1.1-5.12.1-5.44Z"/>
  <path class="cls-1" d="M127.57,2.4c2.59,0,3.95,1.99,3.92,4.5-.03,2.64-1.33,4.64-3.91,4.64s-3.94-1.97-3.91-4.63c.05-2.5,1.3-4.51,3.89-4.51ZM130.21,6.91c0-1.87-.74-3.46-2.62-3.46-2.03,0-2.61,1.6-2.61,3.46s.58,3.57,2.59,3.57,2.64-1.68,2.64-3.57Z"/>
  <path class="cls-1" d="M139.34,3.25c-.02-.27-.14-.67.13-.78.11-.03.34-.06.5-.06.61,0,.66.67.58,1.5h.1s.75-1.5,2.71-1.5c2.05,0,3.43,1.89,3.43,4.74,0,2.67-1.55,4.39-3.38,4.39s-2.56-1.26-2.72-1.67h-.11c.02,1.2,0,2.96.02,3.33.03.53-.16.58-.48.58h-.35c-.35,0-.5-.14-.48-.56.03-.3.14-7.36.08-9.96ZM143.17,10.47c1.22,0,2.3-1.07,2.3-3.3s-.96-3.71-2.48-3.71c-1.31,0-2.43,1.18-2.43,2.79v1.95c.14.46.93,2.27,2.61,2.27Z"/>
  <path class="cls-1" d="M152.53,2.4c2.59,0,3.95,1.99,3.92,4.5-.03,2.64-1.33,4.64-3.91,4.64s-3.94-1.97-3.91-4.63c.05-2.5,1.3-4.51,3.89-4.51ZM155.17,6.91c0-1.87-.74-3.46-2.62-3.46-2.03,0-2.61,1.6-2.61,3.46s.58,3.57,2.59,3.57,2.64-1.68,2.64-3.57Z"/>
  <path class="cls-1" d="M158.81,9.27c0-1.36.02-3.62.02-4.96,0-.42,0-.85-.02-1.02-.02-.53-.06-.88.56-.88.66,0,.7.34.66,1.63h.13c.32-.93,1.17-1.63,2.21-1.63,1.39,0,1.95.91,1.95,1.99,0,.67-.21.88-.82.88-.53,0-.43-.19-.43-.69,0-.59-.3-1.12-1.09-1.12-1.07,0-1.81,1.55-1.91,2.5-.03,1.28-.05,3.15-.02,4.59.02.4.16.82-.42.82h-.4c-.42,0-.48-.34-.46-.75,0-.19.03-.83.03-1.34Z"/>
  <path class="cls-1" d="M166.97,3.63h-1.1c-.3,0-.34-.08-.34-.29v-.38c0-.1.05-.26.26-.26,1.36,0,1.54-.71,1.55-1.5,0-.21.1-.37.42-.37.26,0,.58,0,.56.4-.02.42-.03.94-.03,1.33.29.03,1.81.03,2.58,0,.26,0,.34.11.34.27v.51c0,.13-.03.27-.3.27-.82-.02-2.74,0-2.66,0-.06,1.3-.08,3.68-.08,5.41,0,1.07.27,1.41,1.01,1.41.51,0,1.01-.19,1.31-.34.29-.14.42-.05.48.14l.08.35c.06.24.02.35-.18.46-.4.24-1.18.46-1.87.46-1.5,0-2.14-.67-2.11-2.45.02-1.1.1-5.12.1-5.44Z"/>
  <path class="cls-1" d="M174.13,4.27c-.11,0-.74,0-1.04.02-.24.02-.29-.06-.29-.27v-.3c0-.16.06-.27.21-.29l1.12-.21v-.77C174.13,1.17,174.83,0,176.51,0c.67,0,1.12.1,1.41.14,0,0,.18.98-.5.98-.3,0-.59-.06-.9-.06-.62,0-1.18.38-1.18,1.39v.79s.93.02,1.84,0c.27,0,.35.06.34.29l-.03.5c-.02.21-.1.27-.27.27h-1.87c-.02,1.36.02,6,.02,6.32,0,.35.08.75-.4.75h-.4c-.45,0-.45-.35-.45-.69.02-.26,0-5.76.02-6.4Z"/>
  <path class="cls-1" d="M182.88,2.4c2.59,0,3.95,1.99,3.92,4.5-.03,2.64-1.33,4.64-3.91,4.64s-3.94-1.97-3.91-4.63c.05-2.5,1.3-4.51,3.89-4.51ZM185.52,6.91c0-1.87-.74-3.46-2.62-3.46-2.03,0-2.61,1.6-2.61,3.46s.58,3.57,2.59,3.57,2.64-1.68,2.64-3.57Z"/>
  <path class="cls-1" d="M189.29.7c-.03-.53,0-.7.54-.7.75,0,.77.37.74.77-.03.83-.16,6.83-.14,9.17.02.58.27.56.93.48.22-.03.32.05.34.19l.03.37c0,.19-.02.26-.19.34-.22.1-.7.21-1.06.21-.82,0-1.26-.45-1.26-1.5-.02-1.18.11-8.75.08-9.32Z"/>
  <path class="cls-1" d="M194.25.45c-.02-.75.32-.86.77-.86s.82.1.83.86c.02.75-.34.83-.77.83-.5,0-.82-.08-.83-.83ZM194.36,8.96c.03-1.87.02-4.67.02-5.7,0-.35-.1-.7.54-.7s.77.11.74.58c-.08,2.1-.05,4.77-.05,6.08,0,.59,0,1.14.02,1.33.03.51-.03.82-.43.82h-.38c-.48,0-.5-.37-.48-.77.02-.3.03-.99.03-1.63Z"/>
  <path class="cls-1" d="M202.17,2.4c2.59,0,3.95,1.99,3.92,4.5-.03,2.64-1.33,4.64-3.91,4.64s-3.94-1.97-3.91-4.63c.05-2.5,1.3-4.51,3.89-4.51ZM204.81,6.91c0-1.87-.74-3.46-2.62-3.46-2.03,0-2.61,1.6-2.61,3.46s.58,3.57,2.59,3.57,2.64-1.68,2.64-3.57Z"/>
  <path class="cls-1" d="M5.78,0c3.51,0,5.75,2.24,5.75,5.75s-2.24,5.78-5.75,5.78S0,9.27,0,5.75,2.26,0,5.78,0ZM5.78,10.58c2.87,0,4.69-1.94,4.69-4.83S8.64.96,5.78.96,1.06,2.88,1.06,5.75s1.82,4.83,4.72,4.83ZM5.78,2.32c.62,0,1.18.14,1.5.34.22.13.37.32.21.77-.11.26-.24.35-.24.35,0,0-.59-.4-1.44-.4-.9,0-1.58.88-1.58,2.32s.66,2.3,1.6,2.3c.46,0,.93-.14,1.17-.27.16-.08.3-.1.4.13l.14.34c.1.21.1.35-.06.45-.19.13-.83.4-1.7.4-1.78,0-2.85-1.46-2.83-3.34,0-1.95,1.14-3.38,2.83-3.38Z"/>
</svg>