<?xml version="1.0" encoding="UTF-8"?>
<svg id="img" xmlns="http://www.w3.org/2000/svg" viewBox="0 0 90.46 56.65">
  <defs>
    <style>
      .cls-1 {
        fill: #321d0b;
        stroke-width: 0px;
      }
    </style>
  </defs>
  <path class="cls-1" d="M90.46,33.15c0,4.11-6.55,7.13-9.9,7.13-6.55,0-9.4-6.63-9.4-14.02,0-2.1.34-6.13,1.09-7.3.67-1.09,1.85-1.68,3.61-1.68,2.18,0,3.1,1.93,3.1,3.11,0,1.51-1.09,5.79-1.09,9.15,0,2.43.84,4.62,3.1,4.62,3.19,0,4.45-3.36,6.88-3.36,1.34,0,2.6,1.09,2.6,2.35ZM75.61,14.6c-2.27,0-3.78-1.68-3.78-3.52,0-2.52,2.35-4.45,4.78-4.45,2.69,0,3.44,2.1,3.44,3.36,0,2.35-1.59,4.62-4.45,4.62Z"/>
  <path class="cls-1" d="M45.74,33.49c0,4.28-6.88,6.71-10.24,7.81.42,8.39-4.03,15.36-12.42,15.36-5.04,0-7.97-2.1-7.97-6.71,0-5.87,5.29-9.99,14.1-13.09.08-3.19.08-6.21.25-9.65-1.76,4.7-6.29,10.15-12.42,10.15-4.87,0-9.9-1.68-9.9-10.07,0-4.28,2.35-12.67,2.35-17.79,0-1.51-.34-2.43-1.09-2.43-1.76,0-2.43,4.87-5.62,4.87-2.01,0-2.77-1.68-2.77-3.1C0,7.05,3.27,0,10.24,0c4.28,0,5.71,3.52,5.71,7.97,0,6.29-2.27,12.59-2.27,18.46,0,2.94.76,4.62,3.69,4.62,5.2,0,9.15-8.81,10.74-15.61,1.01-4.2,1.01-9.15,1.01-10.83s1.34-3.19,4.11-3.19c3.1,0,3.44,1.93,3.44,3.02,0,1.85-1.01,7.05-1.26,11.08-.34,4.87-.34,13.43-.08,19.13,4.95-1.93,4.87-3.86,7.55-3.86,1.93,0,2.85,1.26,2.85,2.69ZM29.29,43.22c-4.7.84-7.05,3.78-7.05,5.46,0,.84.42,1.43,1.68,1.43,1.01,0,5.04-1.01,5.37-6.88Z"/>
  <path class="cls-1" d="M59.75,36c-1.34,1.76-3.78,4.03-7.55,4.03-3.52,0-5.96-1.09-7.47-2.85-1.85-1.93-3.61-5.88-3.61-10.66,0-3.19.84-8.56,3.78-8.56,2.01,0,3.44,1.26,3.44,3.27s-.76,3.78-.76,7.22c0,2.35.42,5.54,4.45,5.54s4.45-2.35,4.62-4.7c.59-7.22-.25-12.08,3.86-12.08,2.1,0,3.27,1.34,3.27,3.27s-.42,7.47-.42,8.98c0,4.03,1.17,4.78,2.6,4.78,2.94,0,4.78-3.44,7.13-3.44,1.26,0,2.69.92,2.69,2.35,0,3.94-6.29,7.13-9.57,7.13-3.02,0-5.62-2.27-6.46-4.28Z"/>
  <path class="cls-1" d="M61.5,14.6c2.27,0,3.78-1.68,3.78-3.52,0-2.52-2.35-4.45-4.78-4.45-2.69,0-3.44,2.1-3.44,3.36,0,2.35,1.59,4.62,4.45,4.62Z"/>
</svg>