<?xml version="1.0" encoding="UTF-8"?>
<svg id="img" xmlns="http://www.w3.org/2000/svg" viewBox="0 0 1920 1255.1">
  <defs>
    <style>
      .cls-1 {
        fill: #f06159;
      }

      .cls-1, .cls-2, .cls-3, .cls-4, .cls-5, .cls-6, .cls-7, .cls-8, .cls-9, .cls-10 {
        stroke-width: 0px;
      }

      .cls-2, .cls-3, .cls-5, .cls-6, .cls-8 {
        fill: #f9963b;
      }

      .cls-2, .cls-7, .cls-11 {
        opacity: .8;
      }

      .cls-12 {
        fill: none;
        stroke: #000;
        stroke-miterlimit: 10;
        stroke-width: .75px;
      }

      .cls-4 {
        fill: #ec423e;
      }

      .cls-5 {
        opacity: .5;
      }

      .cls-6 {
        opacity: .4;
      }

      .cls-7, .cls-9 {
        fill: #e9e13f;
      }

      .cls-8 {
        opacity: .6;
      }

      .cls-10 {
        fill: #f3e9cf;
      }
    </style>
  </defs>
  <line class="cls-12" x1="969.44" y1="256.45" x2="1189.17" y2="197.57"/>
  <rect class="cls-10" x="0" width="1920" height="1255.2"/>
  <rect class="cls-5" y=".05" width="1920" height="1255"/>
  <path class="cls-6" d="M0,642.77s225.76,18.01,292.03-45.05c66.26-63.06,92.57-161.57,77.71-234.07,96.28,19.42,211.94,36.25,319.2-33.66C789.09,264.62,812.54,0,812.54,0H0v642.77Z"/>
  <path class="cls-2" d="M1700.68,317.61c12.72,20.62,22.99,51.67,44.53,72.53,21.75,20.78,54.77,31.37,84.44,24.93,29.55-6.16,55.47-29.47,79.51-55.89,3.68-4.06,7.31-8.2,10.81-12.39.02-31.87.02-112.09,0-133.89-6.36-6.37-13.17-12.19-19.98-17.27-25.39-19.17-50.77-27.65-71.77-33.28-21-5.62-37.54-8.17-53.69-9.69-16.23-1.72-32.06-2.4-52.01-2.72-20.15-.24-44.42-.12-65.05,10.28-20.43,10.32-37.3,30.7-36.87,51.92.64,21.14,18.64,42.62,35.3,58.67,16.66,16.05,32.04,26.17,44.76,46.79Z"/>
  <g class="cls-11">
    <path class="cls-9" d="M1808.03,876.94c22.86,16.97,63.34,12.25,71.7-11.24,16.74-23.17,14.99-62.49-11.09-72.68-22.86-16.97-51.51-8.26-71.7,11.24-16.74,23.17-13.41,46.05,11.09,72.68Z"/>
  </g>
  <path class="cls-3" d="M1730.94,682.38c-58.25,42.41-126.31,37.31-182.68-28.1-42.64-57.93-24.57-134.98,28.25-181.7,58.25-42.41,162.4-52.91,182.68,28.1,42.64,57.93,33.05,135.69-28.25,181.7Z"/>
  <path class="cls-10" d="M1840.02,1255.05c40.4-56.19,129.34-206.63,31.59-332.77-122.83-158.51-348.03-241.94-575.27-307.01-227.24-65.07-282.51-190.21-161.73-190.21s264.09,20.02,380.78,30.03c116.69,10.01,319.36,23.36,360.31-56.73,40.94-80.09-116.78-136.67-177.88-159.38C1577.89,194.4,690.21.05,689.41.05s-25.91,0-25.91,0l404.21,97.48s676.98,160.67,669.81,264.95c-7.17,104.28-755.5-79.7-843.45-95.11-115.79-20.29-371.57-17.52-351.1,142.66,20.47,160.18,194.48,240.27,278.42,307.01,83.94,66.74,194.48,141.83,135.12,236.93-55.24,88.49-225.68,200.1-521.21,301.21"/>
  <path class="cls-8" d="M89.34,625.41c51.56,71.27,150.88,87.08,221.84,35.29,70.96-51.78,86.69-151.54,35.14-222.82-51.56-71.27-150.88-87.08-221.84-35.29-70.96,51.78-86.69,151.54-35.14,222.82Z"/>
  <g class="cls-11">
    <path class="cls-9" d="M210.4,700.87c65.76,47.92,173.6,42.16,206.25-31.75,48.15-65.45,39.99-152.49-31.9-205.27-65.76-47.92-132.85-59.77-206.25,31.75-48.15,65.45-30.41,153.3,31.9,205.27Z"/>
  </g>
  <g class="cls-11">
    <path class="cls-4" d="M1667.97,988.56c-20.67,15.36-44.82,13.51-64.82-10.18-15.13-20.98-8.72-48.88,10.02-65.8,20.67-15.36,57.63-19.16,64.82,10.18,15.13,20.98,11.73,49.14-10.02,65.8Z"/>
  </g>
  <path class="cls-1" d="M53.91,798.56c13.78,10.32,38.18,7.45,43.21-6.84,10.09-14.09,9.03-38-6.68-44.2-13.78-10.32-31.05-5.02-43.21,6.84-10.09,14.09-8.08,28.01,6.68,44.2Z"/>
  <g class="cls-11">
    <path class="cls-9" d="M1311.74,744.33c17.52-2.23,45.93-10.22,49.02-24.49,10.44-14.06-22.08-28.97-39.15-34.96-14.25-10.29-33.24-6.15-44.7,6.82-15.61,28.31,14.53,48.9,34.84,52.63Z"/>
  </g>
  <g class="cls-11">
    <path class="cls-9" d="M1702.71,572.58c17.52-2.28,45.93-10.44,49.02-25.01,10.44-14.36-22.08-29.59-39.15-35.7-14.25-10.51-33.24-6.28-44.7,6.97-15.61,28.91,14.53,49.94,34.84,53.75Z"/>
  </g>
  <path class="cls-7" d="M531.45,0s-21.29,230.96-137.05,198.02c-55.74-29.36-138.13,14.19-144.41,67.78-6.28,53.58-30.73,77.34-30.73,77.34,0,0-33.6,63.78-108.62,0-37.29-50.13-30.84-62.7-30.84-62.7L137.96,0h393.49Z"/>
  <path class="cls-3" d="M0,0l.33,256.79s121.78,1.83,189.23-71.05C257.01,112.86,287.53,80.93,281.76,0,210.99,0,0,0,0,0Z"/>
  <path class="cls-2" d="M226.59,1109.55c-10.86-10.42-21.88-27.48-38.09-36.67-16.32-9.11-37.82-10.34-54.66-1.84-16.81,8.3-28.75,26.35-39.09,45.97-10.23,19.54-18.73,40.57-13.04,58.18,5.73,17.42,25.69,31.22,44.06,38.71,18.26,7.57,34.84,8.72,48.34,8.83,13.5.11,23.85-.93,33.79-2.53,10.02-1.49,19.65-3.55,31.69-6.46,12.15-2.99,26.72-6.84,37.51-16.3,10.67-9.38,17.64-24.26,14.07-36.95-3.68-12.61-17.86-22.72-30.38-29.77-12.52-7.05-23.34-10.74-34.21-21.16Z"/>
</svg>