<?xml version="1.0" encoding="UTF-8"?>
<svg id="img" xmlns="http://www.w3.org/2000/svg" viewBox="0 0 978 356.33">
  <defs>
    <style>
      .cls-1 {
        fill: #321d0b;
        stroke-width: 0px;
      }
    </style>
  </defs>
  <path class="cls-1" d="M10.15,15.83c.46-4.72,0-14.31,9.9-14.31h20.86c3.96,0,10.2.76,11.57,8.37,1.07,4.57,11.27,47.5,11.27,47.5h1.37s12.18-44.61,12.94-47.81c1.07-7.92,7.46-8.07,12.33-8.07h19.94c10.81,0,10.51,8.68,10.66,15.38.46,9.29,5.18,59.99,6.39,73.84.46,7.31,4.26,14.31-10.35,14.31h-10.2c-11.42,0-9.74-6.55-10.35-13.25-.61-8.53-2.44-44.76-3.65-57.4h-1.07c-2.28,9.44-10.05,40.35-11.42,47.65-1.07,5.02-4.26,6.39-7.76,6.39h-15.83c-5.18,0-7.92-3.65-8.53-6.39-1.83-8.68-9.59-38.98-11.57-47.2h-.91c-.61,14.01-1.83,51-2.13,57.55-.46,7.46,1.37,12.64-9.59,12.64h-11.42c-10.81,0-11.57-5.18-10.81-11.72C3.91,76.12,9.39,23.6,10.15,15.83Z"/>
  <path class="cls-1" d="M141.23,90.59c4.72-17.81,19.18-70.79,20.4-76.58,1.67-7.31,1.98-12.48,14.46-12.48h24.36c9.59,0,11.88,4.87,13.4,11.57,1.37,5.94,15.83,65.47,18.27,76.73,1.52,7.46,3.65,15.22-6.39,15.22h-10.51c-10.81,0-11.57-8.22-12.64-11.88-.61-1.67-1.37-5.02-2.59-8.83h-25.12c-1.22,4.26-2.13,7.61-2.28,8.68-.3,7.46-1.52,12.03-10.81,12.03h-14.77c-7.46,0-7.46-8.07-5.79-14.46ZM196.5,63.64l-8.83-42.17h-.91c-1.22,7.46-5.18,26.03-8.68,42.17h18.42Z"/>
  <path class="cls-1" d="M267.75,26.49c-4.87,0-14.92,0-18.12.3-6.55.61-8.68-2.44-8.53-8.37l.15-9.9c0-5.63,1.22-7,9.44-7,0,0,54.96.46,68.21-.46,6.7-.3,8.37,3.35,8.22,9.29l-.15,9.29c-.15,5.63-1.22,7-9.44,7h-17.97c-.76,21.01-.91,56.64-.91,60.9.15,7.46,4.11,17.51-9.9,17.51h-11.72c-10.66,0-10.96-8.68-10.81-15.38.46-6.39,1.67-45.83,1.52-63.18Z"/>
  <path class="cls-1" d="M340.22,84.34c1.37-5.48,4.42-8.98,4.42-8.98,0,0,10.81,6.55,27.25,6.55,6.85,0,11.11-3.2,10.96-7.92-.3-4.11-3.5-6.85-12.64-9.14l-9.29-2.28c-14.31-3.5-23.45-10.66-24.36-27.25-1.37-22.38,15.53-35.32,38.82-35.32,11.72,0,21.62,2.44,25.43,4.11,8.07,3.2,10.05,6.55,6.24,18.73-1.37,4.11-3.65,7.76-3.65,7.76,0,0-11.87-5.94-25.12-5.94-7.16,0-11.11,2.89-10.96,7.92.3,4.26,3.81,5.94,10.81,7.76l10.05,2.74c20.1,5.33,25.88,15.68,26.64,28.32,1.52,23.29-17.36,35.17-41.41,35.17-10.35,0-20.86-2.28-24.66-3.65-10.81-3.81-11.72-8.83-8.53-18.57Z"/>
  <path class="cls-1" d="M430.5,18.42c-.15-7.46-3.65-16.9,9.9-16.9h11.72c10.66,0,11.11,8.07,10.81,14.77-.3,7.46-1.07,29.69-.76,41.26.61,15.83,3.35,23.14,13.25,23.14,10.66,0,13.7-6.85,13.7-23.29,0-14.16-.15-33.04-.3-38.98-.15-7.46-3.81-16.9,9.74-16.9h11.87c10.66,0,10.96,8.07,10.81,14.77-.3,7.46-.76,34.1-1.07,41.26-1.37,29.84-9.9,49.02-44,49.02-36.08,0-44.46-18.73-45.07-48.87-.46-20.25-.46-34.26-.61-39.28Z"/>
  <path class="cls-1" d="M545.91,15.83c.46-4.72,0-14.31,9.9-14.31h20.86c3.96,0,10.2.76,11.57,8.37,1.07,4.57,11.27,47.5,11.27,47.5h1.37s12.18-44.61,12.94-47.81c1.07-7.92,7.46-8.07,12.33-8.07h19.94c10.81,0,10.5,8.68,10.66,15.38.46,9.29,5.18,59.99,6.39,73.84.46,7.31,4.26,14.31-10.35,14.31h-10.2c-11.42,0-9.74-6.55-10.35-13.25-.61-8.53-2.44-44.76-3.65-57.4h-1.06c-2.28,9.44-10.05,40.35-11.42,47.65-1.07,5.02-4.26,6.39-7.76,6.39h-15.83c-5.18,0-7.92-3.65-8.53-6.39-1.83-8.68-9.59-38.98-11.57-47.2h-.91c-.61,14.01-1.83,51-2.13,57.55-.46,7.46,1.37,12.64-9.59,12.64h-11.42c-10.81,0-11.57-5.18-10.81-11.72,2.13-17.2,7.61-69.73,8.37-77.49Z"/>
  <path class="cls-1" d="M725.41,0c31.67,0,49.02,23.14,48.57,53.29-.61,30.14-16.14,53.29-47.5,53.29s-49.02-22.99-48.57-53.29c.61-29.99,15.53-53.29,47.5-53.29ZM741.7,53.13c0-14.46-3.05-27.25-15.83-27.25s-16.29,12.79-16.14,27.25c.3,14.16,3.05,27.56,16.14,27.56s15.98-13.55,15.83-27.56Z"/>
  <path class="cls-1" d="M810.21,26.49c-4.87,0-14.92,0-18.12.3-6.55.61-8.68-2.44-8.53-8.37l.15-9.9c0-5.63,1.22-7,9.44-7,0,0,54.96.46,68.21-.46,6.7-.3,8.37,3.35,8.22,9.29l-.15,9.29c-.15,5.63-1.22,7-9.44,7h-17.97c-.76,21.01-.91,56.64-.91,60.9.15,7.46,4.11,17.51-9.9,17.51h-11.72c-10.66,0-10.96-8.68-10.81-15.38.46-6.39,1.67-45.83,1.52-63.18Z"/>
  <path class="cls-1" d="M926.68,0c31.67,0,49.02,23.14,48.57,53.29-.61,30.14-16.14,53.29-47.5,53.29s-49.02-22.99-48.57-53.29c.61-29.99,15.53-53.29,47.5-53.29ZM942.97,53.13c0-14.46-3.05-27.25-15.83-27.25s-16.29,12.79-16.14,27.25c.3,14.16,3.04,27.56,16.14,27.56s15.98-13.55,15.83-27.56Z"/>
  <path class="cls-1" d="M28.41,211.36c-4.42-10.05-23.45-46.89-26.19-51.92-1.52-3.04-4.57-11.27,6.24-11.27h12.79c8.07,0,9.9,5.02,11.27,9.14,2.13,6.85,9.29,23.9,11.72,30.14h.91c3.2-8.07,10.05-24.82,12.03-31.06,1.67-5.48,3.96-8.22,13.7-8.22h13.85c5.48,0,8.53,6.09,5.79,11.11-4.11,7.46-25.88,44.91-30.75,52.83.15,4.57-.15,16.14.46,22.08.61,7.46,4.11,17.51-9.9,17.51h-11.57c-10.81,0-10.96-8.83-10.81-15.53.15-8.83.46-20.55.46-24.82Z"/>
  <path class="cls-1" d="M103.62,165.08c-.15-7.46-3.65-16.9,9.9-16.9h11.72c10.66,0,11.11,8.07,10.81,14.77-.3,7.46-1.07,29.69-.76,41.26.61,15.83,3.35,23.14,13.25,23.14,10.66,0,13.7-6.85,13.7-23.29,0-14.16-.15-33.04-.3-38.98-.15-7.46-3.81-16.9,9.74-16.9h11.88c10.66,0,10.96,8.07,10.81,14.77-.3,7.46-.76,34.1-1.07,41.26-1.37,29.84-9.9,49.02-44,49.02-36.08,0-44.46-18.73-45.07-48.87-.46-20.25-.46-34.26-.61-39.28Z"/>
  <path class="cls-1" d="M215.53,165.69c-.15-7.46-3.96-17.51,10.2-17.51h11.72c10.66,0,10.81,8.68,10.66,15.38-.46,10.81-1.83,59.83-1.07,70.64.46,7.46,4.11,17.51-9.9,17.51h-11.72c-10.66,0-10.81-8.83-10.66-15.53.61-17.2.91-61.81.76-70.49Z"/>
  <path class="cls-1" d="M271.55,194.92s10.05-6.24,11.11-15.83c-5.63-.3-14.16-3.65-14.16-15.83s7.76-16.59,17.66-16.59,18.27,4.72,18.27,20.86c0,21.01-8.83,35.32-20.55,35.32-12.48,0-12.33-7.92-12.33-7.92Z"/>
  <path class="cls-1" d="M318.45,241.85c.24-3.44,1.7-5.87,1.7-5.87,0,0,7.19,2.79,17.07,1.05,4.12-.73,6.34-3.1,5.75-5.92-.62-2.44-2.83-3.75-8.56-4.15l-5.82-.39c-8.97-.59-15.22-3.92-17.53-13.8-3.2-13.31,5.59-22.88,19.59-25.35,7.05-1.24,13.25-.83,15.72-.22,5.19,1.07,6.73,2.87,5.74,10.59-.39,2.62-1.37,5.05-1.37,5.05,0,0-7.77-2.31-15.73-.91-4.3.76-6.37,2.92-5.75,5.92.63,2.53,2.92,3.17,7.32,3.52l6.33.58c12.64,1.07,17.22,6.68,19.02,14.2,3.38,13.84-6.71,22.98-21.16,25.53-6.22,1.1-12.78.84-15.21.42-6.9-1.14-7.98-4.07-7.09-10.26Z"/>
  <path class="cls-1" d="M.73,288.03c-.12-5.82-3.09-13.66,7.96-13.66h24.47c21.26,0,32.9,12,32.19,28.39-.59,16.15-10.45,28.75-31.24,28.75h-9.03c0,3.09,0,8.55.12,9.98.36,5.82,3.21,13.66-7.72,13.66h-9.15C.02,355.14-.1,348.25.02,343.03c.47-13.42.83-51.08.71-55ZM29.72,315.47c9.03,0,12-4.99,12.12-11.76.36-6.65-2.38-12.24-11.28-12.24h-5.35c-.36,5.23-.47,17.22-.59,23.99h5.11Z"/>
  <path class="cls-1" d="M111.92,273.18c24.71,0,38.25,18.06,37.89,41.58-.47,23.52-12.59,41.57-37.06,41.57s-38.25-17.94-37.89-41.57c.48-23.4,12.12-41.58,37.06-41.58ZM124.63,314.64c0-11.28-2.38-21.26-12.35-21.26s-12.71,9.98-12.59,21.26c.24,11.05,2.38,21.5,12.59,21.5s12.47-10.57,12.35-21.5Z"/>
  <path class="cls-1" d="M163.95,287.91c0-5.7-2.85-13.54,8.08-13.54h24.59c21.14,0,32.43,11.64,31.95,28.15-.36,10.1-5.7,17.46-13.3,21.62l7.36,10.45c2.38,3.68,4.63,4.16,8.08,4.16,3.21,13.42-2.61,17.58-12.24,17.58-8.32,0-12.12-4.51-15.44-11.28l-8.91-16.63h-5.82c-.24,2.73-.47,12.59-.12,17.11.47,7.25-1.31,9.62-7.6,9.62h-9.03c-8.31,0-8.55-6.89-8.31-12.12.36-13.42.83-51.08.71-55.12ZM193.05,313.45c8.2,0,12.35-3.56,12.35-11.05,0-5.23-2.73-10.93-11.88-10.93h-5.94c-.24,5.7-.12,17.34-.12,21.98h5.58Z"/>
  <path class="cls-1" d="M259.1,293.85c-3.8,0-11.64,0-14.14.24-5.11.47-6.77-1.9-6.65-6.53l.12-7.72c0-4.4.95-5.46,7.36-5.46,0,0,42.88.36,53.22-.36,5.23-.24,6.53,2.61,6.41,7.25l-.12,7.25c-.12,4.39-.95,5.46-7.36,5.46h-14.02c-.59,16.39-.71,44.19-.71,47.51.12,5.82,3.21,13.66-7.72,13.66h-9.15c-8.32,0-8.55-6.77-8.43-12,.36-4.99,1.31-35.75,1.19-49.3Z"/>
  <path class="cls-1" d="M316,340.77c.36-16.27.71-48.94.71-52.74-.12-6.41-2.85-13.66,8.08-13.66h37.06c5.82,0,7.36,2.85,7.36,6.89v7.13c0,4.28-2.73,6.18-7.84,5.94h-19.84l-.36,16.15c5.46.12,14.61-.12,18.53-.12,5.46,0,5.94,2.26,5.94,6.41v5.46c0,4.51-1.31,5.7-5.7,5.35-3.33-.24-12.83-.24-19.24-.24,0,10.33.95,15.68.83,20.19-.24,6.3-4.51,7.6-9.15,7.6h-8.08c-6.65,0-8.08-3.8-8.31-8.67v-5.7Z"/>
  <path class="cls-1" d="M416.49,273.18c24.71,0,38.25,18.06,37.89,41.58-.47,23.52-12.59,41.57-37.06,41.57s-38.25-17.94-37.89-41.57c.48-23.4,12.12-41.58,37.06-41.58ZM429.2,314.64c0-11.28-2.38-21.26-12.35-21.26s-12.71,9.98-12.59,21.26c.24,11.05,2.38,21.5,12.59,21.5s12.47-10.57,12.35-21.5Z"/>
  <path class="cls-1" d="M467.81,340.18c.59-15.2.71-43.36.71-50.13,0-3.45-.59-6.89-.24-10.69.48-2.97,2.26-4.99,7.84-4.99h9.27c6.06,0,7.6,3.68,8.08,7.48.24,1.66.24,4.04.12,6.41-.24,8.08-1.07,34.57-.95,47.51,7.25,0,17.82,0,21.5-.36,5.11-.59,7.36,2.38,7.36,7.01,0,2.38,0,4.75-.12,7.13.12,4.4-.95,5.58-7.36,5.58h-37.89c-6.06,0-7.6-3.68-8.08-7.6-.24-2.02-.24-4.63-.24-7.36Z"/>
  <path class="cls-1" d="M535.99,288.03c-.12-5.82-3.09-13.66,7.96-13.66h9.15c8.31,0,8.43,6.77,8.31,12-.36,8.43-1.42,46.68-.83,55.12.36,5.82,3.21,13.66-7.72,13.66h-9.15c-8.31,0-8.43-6.89-8.31-12.12.47-13.42.71-48.23.59-55Z"/>
  <path class="cls-1" d="M612.73,273.18c24.71,0,38.25,18.06,37.89,41.58-.47,23.52-12.59,41.57-37.06,41.57s-38.25-17.94-37.89-41.57c.48-23.4,12.12-41.58,37.06-41.58ZM625.44,314.64c0-11.28-2.38-21.26-12.35-21.26s-12.71,9.98-12.59,21.26c.24,11.05,2.38,21.5,12.59,21.5s12.47-10.57,12.35-21.5Z"/>
  <path class="cls-1" d="M695.4,338.99c1.07-4.28,3.45-7.01,3.45-7.01,0,0,8.43,5.11,21.26,5.11,5.35,0,8.67-2.49,8.55-6.18-.24-3.21-2.73-5.35-9.86-7.13l-7.25-1.78c-11.17-2.73-18.29-8.32-19.01-21.26-1.07-17.46,12.12-27.56,30.29-27.56,9.15,0,16.87,1.9,19.84,3.21,6.3,2.49,7.84,5.11,4.87,14.61-1.07,3.21-2.85,6.06-2.85,6.06,0,0-9.27-4.63-19.6-4.63-5.58,0-8.67,2.26-8.55,6.18.24,3.33,2.97,4.63,8.43,6.06l7.84,2.14c15.68,4.16,20.19,12.24,20.79,22.09,1.19,18.17-13.54,27.44-32.31,27.44-8.08,0-16.27-1.78-19.24-2.85-8.43-2.97-9.15-6.89-6.65-14.49Z"/>
  <path class="cls-1" d="M768.34,288.03c-.12-5.82-3.09-13.66,7.96-13.66h9.15c8.32,0,8.43,6.77,8.32,12-.36,8.43-1.43,46.68-.83,55.12.36,5.82,3.21,13.66-7.72,13.66h-9.15c-8.31,0-8.43-6.89-8.31-12.12.47-13.42.71-48.23.59-55Z"/>
  <path class="cls-1" d="M825.95,293.85c-3.8,0-11.64,0-14.14.24-5.11.47-6.77-1.9-6.65-6.53l.12-7.72c0-4.4.95-5.46,7.36-5.46,0,0,42.88.36,53.22-.36,5.23-.24,6.53,2.61,6.42,7.25l-.12,7.25c-.12,4.39-.95,5.46-7.36,5.46h-14.02c-.59,16.39-.71,44.19-.71,47.51.12,5.82,3.21,13.66-7.72,13.66h-9.15c-8.31,0-8.55-6.77-8.43-12,.36-4.99,1.31-35.75,1.19-49.3Z"/>
  <path class="cls-1" d="M883.56,288.03c-.12-5.82-3.09-13.66,7.96-13.66h39.32c6.3,0,7.25,2.85,7.25,7.25v5.94c.12,4.63-2.61,6.53-7.72,6.41-4.99-.12-13.66-.12-22.09-.12v12.59c6.65,0,15.44,0,18.05-.12,3.21-.12,5.94,1.43,5.94,5.35v5.94c0,4.63-1.31,5.35-5.35,5.46-3.33,0-12.35-.12-19.01,0-.12,4.87-.12,8.91,0,12.83,7.72,0,19.01-.12,22.81-.36,5.23-.36,7.48,1.9,7.48,6.53v7.6c0,4.51-1.07,5.46-7.36,5.46h-39.56c-8.32,0-8.43-6.89-8.32-12.12.48-13.42.71-51.08.59-55Z"/>
  <path class="cls-1" d="M964.34,330.32c7.25,0,13.66,1.31,13.66,13.07s-6.06,12.95-13.54,12.95-13.9-1.31-13.78-12.95c-.24-11.76,5.82-13.07,13.66-13.07Z"/>
</svg>