<?xml version="1.0" encoding="UTF-8"?>
<svg id="img" xmlns="http://www.w3.org/2000/svg" viewBox="0 0 101.34 14.42">
  <defs>
    <style>
      .cls-1 {
        fill: #fff;
        stroke-width: 0px;
      }
    </style>
  </defs>
  <path class="cls-1" d="M2.56,5.22h.14c.38-1.44,1.62-2.22,2.78-2.22,1.82,0,2.3,1.14,2.28,2.64-.02,1.16-.52,1.66-1.62,1.62-.76-.02-.72-.26-.72-.96,0-.58-.16-1.12-.86-1.12-1,0-1.7,1.64-1.8,2.56-.06,1.64-.08,3.28.02,5.02.04.64.22,1.44-.88,1.44h-.98c-.76,0-.84-.6-.88-1.12-.06-.3-.04-.82-.04-1.42.02-2.02.06-5.02.06-6.4-.02-.48-.02-.82-.02-.94C.04,3.6-.06,3,1.12,3c1.24,0,1.46.7,1.44,2.22Z"/>
  <path class="cls-1" d="M11.82,9.14l-.04.06c.02,1.58.92,3.1,2.92,3.1,1.58,0,2.8-.84,3-.96,0,0,.4.28.56.82.16.62-.02,1.08-.48,1.38-.38.24-1.58.86-3.24.86-3.76,0-5.3-2.5-5.3-5.76s1.86-5.64,5.14-5.64c2.88,0,4.44,1.9,4.44,4.06,0,1.76-.5,2.08-1.24,2.08h-5.76ZM16.28,7.62s.06-.26.06-.56c0-1.28-.64-2-2.02-2-1.94,0-2.48,1.62-2.48,2.56h4.44Z"/>
  <path class="cls-1" d="M28.66,14.4c-.98,0-1.36-.66-1.2-1.94h-.12s-.96,1.94-3.28,1.94c-2.16,0-3.34-1.48-3.38-3.3-.04-2.18,1.6-3.44,3.98-3.42,1.16.02,2.32.34,2.68.48v-.98c0-1.28-.9-1.88-2.24-1.88-1.62,0-2.98.72-2.98.72,0,0-1.06-1.32-.18-2.18.54-.48,1.76-.84,3.48-.84,2.84,0,4.46,1.62,4.5,4.04.02,1.66-.06,4.66-.02,5.78.04.8.5,1.58-1.24,1.58ZM25.38,9.26c-1.24,0-2.18.58-2.18,1.62,0,.94.68,1.5,1.66,1.5,1.28,0,2.22-.94,2.46-1.68v-1.18c-.24-.08-1.04-.26-1.94-.26Z"/>
  <path class="cls-1" d="M42.28,1.5c-.04.7-.18,8.6-.06,11.32,0,.5.28,1.24-.3,1.46-.2.06-.64.12-.98.12-1.08,0-1.32-.84-1.2-1.86h-.12s-.7,1.86-3.16,1.86c-2.3,0-4.16-2.1-4.2-5.98-.02-3.3,1.68-5.42,4-5.42,1.98,0,3,1.56,3.16,2.22h.14c-.02-1.5-.08-3.24-.08-3.8-.04-.98-.02-1.42,1.16-1.42,1.38,0,1.68.74,1.64,1.5ZM39.56,9.3v-1.86c-.12-.4-.86-2.24-2.4-2.24-1.1,0-2.14.84-2.14,3.28s.98,3.8,2.28,3.8c1.2,0,2.26-1.08,2.26-2.98Z"/>
  <path class="cls-1" d="M58.92,14.2c-.78,0-.88-.38-.88-.98,0-1.74.14-3.78.14-5.74,0-1.26-.4-2.28-1.64-2.28-1.4,0-2.08,1.32-2.38,2-.02,1.44-.08,3.16-.04,4.32,0,.58,0,1.04.02,1.24.08.82.04,1.44-.84,1.44h-1.04c-.82,0-.9-.66-.9-1.22,0-.38.02-.94.02-1.58,0-2.7.06-6.18.06-7.1,0-.62-.38-1.3,1.16-1.3,1.2,0,1.48.72,1.56,1.38.02.14.02.4.04.8h.12c.1-.54.76-2.18,3.08-2.18,1.92,0,2.82.92,3.24,2.18h.14c.12-.54.9-2.18,3.2-2.18,2.94,0,3.6,2.3,3.6,4.46-.02,1.62-.16,3.28-.12,5.68.02.66.1,1.26-1.2,1.26s-1.62-.6-1.62-1.32c0-1.82.1-3.64.1-5.6,0-1.26-.42-2.28-1.66-2.28-1.06,0-1.78.76-2.16,1.44.02.28.04.56.04.84-.02,1.62-.16,3.32-.14,5.72.02.66-.14,1-.88,1h-1.02Z"/>
  <path class="cls-1" d="M74.98,14.42c-3.42,0-5.16-2.48-5.12-5.78.04-3.14,1.7-5.64,5.1-5.64s5.2,2.48,5.16,5.66c-.04,3.26-1.74,5.76-5.14,5.76ZM74.98,5.18c-2.02,0-2.46,1.62-2.46,3.46s.46,3.6,2.44,3.6,2.48-1.7,2.48-3.6-.58-3.46-2.46-3.46Z"/>
  <path class="cls-1" d="M85.08,5.22h.14c.38-1.44,1.62-2.22,2.78-2.22,1.82,0,2.3,1.14,2.28,2.64-.02,1.16-.52,1.66-1.62,1.62-.76-.02-.72-.26-.72-.96,0-.58-.16-1.12-.86-1.12-1,0-1.7,1.64-1.8,2.56-.06,1.64-.08,3.28.02,5.02.04.64.22,1.44-.88,1.44h-.98c-.76,0-.84-.6-.88-1.12-.06-.3-.04-.82-.04-1.42.02-2.02.06-5.02.06-6.4-.02-.48-.02-.82-.02-.94,0-.72-.1-1.32,1.08-1.32,1.24,0,1.46.7,1.44,2.22Z"/>
  <path class="cls-1" d="M94.34,9.14l-.04.06c.02,1.58.92,3.1,2.92,3.1,1.58,0,2.8-.84,3-.96,0,0,.4.28.56.82.16.62-.02,1.08-.48,1.38-.38.24-1.58.86-3.24.86-3.76,0-5.3-2.5-5.3-5.76s1.86-5.64,5.14-5.64c2.88,0,4.44,1.9,4.44,4.06,0,1.76-.5,2.08-1.24,2.08h-5.76ZM98.8,7.62s.06-.26.06-.56c0-1.28-.64-2-2.02-2-1.94,0-2.48,1.62-2.48,2.56h4.44Z"/>
</svg>