<?xml version="1.0" encoding="UTF-8"?>
<svg id="img" xmlns="http://www.w3.org/2000/svg" viewBox="0 0 96.3 15.06">
  <defs>
    <style>
      .cls-1 {
        fill: #fff;
        stroke-width: 0px;
      }
    </style>
  </defs>
  <path class="cls-1" d="M6.42,7.14c2.56.7,3.42,1.98,3.46,3.72.06,2.66-2.18,4.2-5.22,4.2-1.7,0-3.04-.44-3.5-.68-.86-.42-1.04-.98-.74-1.78.18-.58.6-.88.6-.88,0,0,1.3,1.12,3.58,1.12,1.54,0,2.5-.76,2.48-1.88,0-.8-.72-1.4-2.1-1.74l-1.72-.44C1.48,8.32.04,7.36,0,5.24-.04,2.8,1.88,1.06,4.9,1.06c1.8,0,3.04.46,3.54.74.68.36.96.82.54,1.76-.2.44-.5.72-.5.72,0,0-1.52-1-3.48-1-1.52,0-2.26.76-2.26,1.84.02.9.96,1.28,1.98,1.56l1.7.46Z"/>
  <path class="cls-1" d="M14.34,9.8l-.04.06c.02,1.58.92,3.1,2.92,3.1,1.58,0,2.8-.84,3-.96,0,0,.4.28.56.82.16.62-.02,1.08-.48,1.38-.38.24-1.58.86-3.24.86-3.76,0-5.3-2.5-5.3-5.76s1.86-5.64,5.14-5.64c2.88,0,4.44,1.9,4.44,4.06,0,1.76-.5,2.08-1.24,2.08h-5.76ZM18.8,8.28s.06-.26.06-.56c0-1.28-.64-2-2.02-2-1.94,0-2.48,1.62-2.48,2.56h4.44Z"/>
  <path class="cls-1" d="M30.86,13.76c0-1.82.16-3.66.16-5.62,0-1.26-.6-2.28-1.82-2.28-1.5,0-2.34,1.48-2.64,2.12-.02,1.4-.04,3.08-.02,4.2,0,.58,0,1.04.02,1.24.08.82.04,1.44-.84,1.44h-1.04c-.82,0-.9-.66-.9-1.22,0-.38.02-.94.02-1.58.06-2.7.06-6.18.06-7.1,0-.62-.38-1.3,1.16-1.3,1.2,0,1.48.72,1.56,1.38.04.14.04.4.04.8h.14c.14-.52,1.04-2.18,3.34-2.18,2.92,0,3.72,2.3,3.7,4.46,0,1.62-.16,3.32-.12,5.74.02.64.08,1.2-1.2,1.2s-1.62-.58-1.62-1.3Z"/>
  <path class="cls-1" d="M46.08,2.16c-.04.7-.18,8.6-.06,11.32,0,.5.28,1.24-.3,1.46-.2.06-.64.12-.98.12-1.08,0-1.32-.84-1.2-1.86h-.12s-.7,1.86-3.16,1.86c-2.3,0-4.16-2.1-4.2-5.98-.02-3.3,1.68-5.42,4-5.42,1.98,0,3,1.56,3.16,2.22h.14c-.02-1.5-.08-3.24-.08-3.8-.04-.98-.02-1.42,1.16-1.42,1.38,0,1.68.74,1.64,1.5ZM43.36,9.96v-1.86c-.12-.4-.86-2.24-2.4-2.24-1.1,0-2.14.84-2.14,3.28s.98,3.8,2.28,3.8c1.2,0,2.26-1.08,2.26-2.98Z"/>
  <path class="cls-1" d="M62.72,14.86c-.78,0-.88-.38-.88-.98,0-1.74.14-3.78.14-5.74,0-1.26-.4-2.28-1.64-2.28-1.4,0-2.08,1.32-2.38,2-.02,1.44-.08,3.16-.04,4.32,0,.58,0,1.04.02,1.24.08.82.04,1.44-.84,1.44h-1.04c-.82,0-.9-.66-.9-1.22,0-.38.02-.94.02-1.58,0-2.7.06-6.18.06-7.1,0-.62-.38-1.3,1.16-1.3,1.2,0,1.48.72,1.56,1.38.02.14.02.4.04.8h.12c.1-.54.76-2.18,3.08-2.18,1.92,0,2.82.92,3.24,2.18h.14c.12-.54.9-2.18,3.2-2.18,2.94,0,3.6,2.3,3.6,4.46-.02,1.62-.16,3.28-.12,5.68.02.66.1,1.26-1.2,1.26s-1.62-.6-1.62-1.32c0-1.82.1-3.64.1-5.6,0-1.26-.42-2.28-1.66-2.28-1.06,0-1.78.76-2.16,1.44.02.28.04.56.04.84-.02,1.62-.16,3.32-.14,5.72.02.66-.14,1-.88,1h-1.02Z"/>
  <path class="cls-1" d="M81.6,15.06c-.98,0-1.36-.66-1.2-1.94h-.12s-.96,1.94-3.28,1.94c-2.16,0-3.34-1.48-3.38-3.3-.04-2.18,1.6-3.44,3.98-3.42,1.16.02,2.32.34,2.68.48v-.98c0-1.28-.9-1.88-2.24-1.88-1.62,0-2.98.72-2.98.72,0,0-1.06-1.32-.18-2.18.54-.48,1.76-.84,3.48-.84,2.84,0,4.46,1.62,4.5,4.04.02,1.66-.06,4.66-.02,5.78.04.8.5,1.58-1.24,1.58ZM78.32,9.92c-1.24,0-2.18.58-2.18,1.62,0,.94.68,1.5,1.66,1.5,1.28,0,2.22-.94,2.46-1.68v-1.18c-.24-.08-1.04-.26-1.94-.26Z"/>
  <path class="cls-1" d="M87.38,0c.82,0,1.46.14,1.5,1.32.02,1.16-.62,1.3-1.4,1.3-.86,0-1.46-.14-1.5-1.3-.04-1.18.6-1.32,1.4-1.32ZM86.88,14.86c-.82,0-.9-.66-.9-1.22,0-.38.02-.94.02-1.58.06-2.7.06-5.44.06-6.9,0-.62-.3-1.3,1.16-1.3,1.22,0,1.66.26,1.62,1.24-.1,2.42-.16,5.42-.12,7.08,0,.58,0,1.04.04,1.24.08.82.04,1.44-.84,1.44h-1.04Z"/>
  <path class="cls-1" d="M92.08,12.5c0-1.3.16-9.58.1-10.54-.04-.96.04-1.3,1.22-1.3,1.4,0,1.58.62,1.56,1.4-.04,1.32-.32,8.08-.24,10.28.02.72.28.66,1.02.64.32-.02.48.14.52.4l.04.66c.02.36-.06.54-.4.68-.44.2-1.24.34-1.84.34-1.48,0-1.98-.94-1.98-2.56Z"/>
</svg>