<?xml version="1.0" encoding="UTF-8"?>
<svg id="img" xmlns="http://www.w3.org/2000/svg" viewBox="0 0 107.64 415.54">
  <defs>
    <style>
      .cls-1 {
        fill: #321d0b;
        stroke-width: 0px;
      }

      .cls-2 {
        fill: none;
        stroke: #321d0b;
        stroke-miterlimit: 10;
        stroke-width: 3px;
      }
    </style>
  </defs>
  <path class="cls-2" d="M22.21,5.05c4.9,1.22,8.02,3.94,8.02,3.94,0,0-5.85,9.66-5.85,24.34,0,6.12,2.86,9.93,7.07,9.79,3.67-.27,6.12-3.13,8.16-11.29l2.04-8.3c3.13-12.78,9.52-20.94,24.34-21.76,19.99-1.22,31.55,13.87,31.55,34.68,0,10.47-2.18,19.31-3.67,22.71-2.86,7.21-5.85,8.98-16.73,5.58-3.67-1.22-6.94-3.26-6.94-3.26,0,0,5.3-10.61,5.3-22.44,0-6.39-2.58-9.93-7.07-9.79-3.81.27-5.3,3.4-6.94,9.66l-2.45,8.98c-4.76,17.95-14.01,23.12-25.3,23.8-20.81,1.36-31.42-15.5-31.42-36.99,0-9.25,2.04-18.63,3.26-22.03C9.02,3.01,13.51,2.2,22.21,5.05Z"/>
  <path class="cls-2" d="M87.35,86.65c10.34-.27,12.92-2.04,12.92,12.1s-8.3,17.27-15.78,16.86c-5.98-.27-15.91-1.77-20.54-2.86l-.41,1.5c7.34,2.18,16.32,10.34,16.32,24.48,0,13.06-8.3,23.26-20.4,23.94-16.18.95-21.22-14.42-21.22-14.42-4.49,2.04-17.14,9.25-21.49,12.24-4.22,2.45-7.48,5.03-7.48,5.03,0,0-6.94-3.26-6.94-15.64,0-11.56,4.49-15.37,9.52-18.09,6.66-3.67,20.13-7.48,27.74-9.66l1.77.95c.82,6.39,3.54,10.88,9.11,10.61,4.62-.27,7.07-4.49,7.07-8.7,0-6.53-6.53-11.02-15.78-11.02-4.35,0-16.05.14-22.44.41-6.66.14-15.64,3.81-15.64-8.7v-10.47c0-9.66,7.89-9.93,13.87-9.66,15.37.68,65.28,1.09,69.77,1.09Z"/>
  <path class="cls-2" d="M20.99,177.63c21.35.68,33.73.68,45.15.68,5.85,0,12.38-3.54,12.38,12.24,0,12.1-2.86,17-12.92,16.59-14.82-.41-32.23-1.5-43.52-.82-2.72,0-5.3.27-7.07.54-6.12.68-11.29.27-11.29-9.11v-10.61c0-6.94,4.22-8.7,8.7-9.25,2.45-.41,5.58-.27,8.57-.27ZM95.11,178.45c9.52-.27,10.61,5.85,10.61,13.6s-1.09,13.74-10.61,14.14c-9.38.14-10.34-5.98-10.34-13.46,0-7.89.95-14.01,10.34-14.28Z"/>
  <path class="cls-2" d="M87.9,224.83c8.98-.27,12.38.41,12.38,12.65,0,13.6-5.71,16.18-13.19,16.18-11.42,0-53.18-2.58-62.02-2.04-3.54.14-3.4,1.9-3.4,6.94,0,2.58-1.63,3.94-4.22,4.22l-5.03.41c-3.54.27-5.44-.82-6.94-4.08-1.77-3.94-3.13-11.29-3.13-17.41,0-15.1,8.7-17.82,22.03-17.68,7.62.14,54.54,1.09,63.51.82Z"/>
  <path class="cls-2" d="M87.9,276.37c8.98-.27,12.38.41,12.38,12.65,0,13.6-5.71,16.18-13.19,16.18-11.42,0-53.18-2.58-62.02-2.04-3.54.14-3.4,1.9-3.4,6.94,0,2.58-1.63,3.94-4.22,4.22l-5.03.41c-3.54.27-5.44-.82-6.94-4.08-1.77-3.94-3.13-11.29-3.13-17.41,0-15.1,8.7-17.82,22.03-17.68,7.62.14,54.54,1.09,63.51.82Z"/>
  <path class="cls-1" d="M14.06,340.58c-.43-2.7-.81-5.04-1.28-7.31-.13-.65-.2-.86-.31-1.08-.05-.13-.13-.23-.13-.34s.07-.2.16-.25c.36-.18.79-.34,1.28-.5,0,.65.05,1.12.22,2.23.43,2.68.97,6.34,1.57,11.16.02.18-.04.27-.14.31-.23.05-.67.11-.9.11-.16,0-.2-.05-.22-.23-.05-.97-.16-1.69-.54-2.63-1.04-2.63-3.26-4.64-5.67-4.64-2.99,0-3.87,2.61-4.09,5.24-.02.23-.05.29-.2.29-.2,0-.61-.05-.86-.11-.2-.04-.27-.09-.25-.29.27-3.04,1.57-6.32,5.2-6.32,2.54,0,4.63,1.57,6.12,4.39l.04-.02ZM11.52,342.78c.04.05.04.11-.02.18-.5.72-1.39,1.51-2.18,2.03-.07.05-.14.04-.2-.04l-.43-.52c-.07-.09-.05-.18.04-.23.88-.52,1.73-1.28,2.3-2.09l.49.67ZM12.69,344.27c.05.07.07.13.02.2-.56.72-1.35,1.53-2.11,2.05-.09.05-.14.04-.22-.05l-.43-.49c-.07-.07-.07-.14.04-.22.74-.45,1.62-1.22,2.25-2.07l.45.58Z"/>
  <path class="cls-1" d="M15.91,354.98c.5-.16.79-.31,1.15-.59.09.52.13,1.06.13,1.4,0,.18-.09.31-.22.31-.07,0-.18-.04-.29-.04-.16,0-.32.04-.76.14-.47.13-.79.23-1.17.34.27,1.28.56,2.54,1.04,3.98.04.11.05.16-.07.2-.22.07-.47.13-.67.16-.14.02-.22-.04-.25-.16-.41-1.33-.72-2.59-1.01-3.87-.65.22-1.33.5-2.04.85.27,1.33.59,2.48,1.03,3.58.05.14.04.2-.09.25-.23.07-.45.13-.68.16-.13.02-.2,0-.25-.14-.36-1.1-.68-2.29-.94-3.42-1.31.7-2.74,1.69-3.67,2.81-.11.11-.16.14-.31.07-.25-.11-.5-.27-.7-.43-.16-.14-.18-.23-.04-.4.25-.36.47-.83.65-1.28.36-.95.54-2.02.54-3.44,0-1.87-.54-3.08-1.78-3.08-1.39,0-1.89,1.69-1.89,4.56,0,.65.05,1.24.11,1.84.02.14-.07.16-.2.14-.25-.04-.59-.11-.86-.2-.14-.04-.2-.07-.22-.23-.04-.47-.07-.9-.07-1.58,0-3.6.97-5.67,3.04-5.67,1.76,0,2.84,1.53,2.84,4.16,0,1.53-.22,2.81-.67,3.73.77-.7,1.76-1.37,2.99-2.03-.32-1.82-.54-3.53-.59-5.2,0-.14.02-.16.18-.22.22-.07.58-.14.85-.16.05,1.85.23,3.49.54,5.13.61-.29,1.31-.59,2.04-.88-.27-1.46-.47-3.13-.52-4.74,0-.14.02-.2.18-.23.14-.04.5-.11.83-.16.02,1.71.23,3.51.43,4.83.41-.14.81-.27,1.39-.47Z"/>
  <path class="cls-1" d="M9.67,372.06c.85,1.3,1.28,2.58,1.28,3.87,0,2.59-1.6,4.2-3.94,4.2-2.68,0-4.63-2.12-4.63-5.94,0-2.16.97-3.13,2.12-3.13.94,0,1.84.83,1.84,2.11,0,1.62-1.04,2.72-2.57,3.06.5,1.55,1.51,2.63,3.28,2.63s2.95-1.4,2.95-3.12-.92-3.56-2.03-4.95c-.45-.58-.94-1.04-1.48-1.58-.14-.14-.16-.23-.04-.36.22-.22.49-.49.72-.67.09-.07.16-.05.27.07,1.24,1.42,2.16,2.34,4.01,4.07,1.13,1.04,2.29,2.12,3.93,3.51-.23-1.5-.5-2.9-.81-4.5-.04-.23-.09-.45-.16-.63-.05-.13-.09-.27-.09-.34,0-.13.07-.22.22-.29.32-.16.67-.29,1.24-.43-.07.59-.07,1.1-.02,1.58.14,1.42.34,2.9.65,4.48.04.22.09.43.16.56.05.07.13.18.13.25,0,.09-.04.18-.14.32-.27.34-.54.61-.76.77-.11.09-.22.13-.31.13-.14,0-.27-.09-.34-.27-.07-.23-.2-.43-.63-.85-1.69-1.6-2.95-2.81-4.79-4.61l-.05.05ZM5.36,373.2c0-.58-.29-1.1-.85-1.1-.59,0-1.1.65-1.1,1.85,0,.4.02.76.09,1.17,1.03-.23,1.85-.9,1.85-1.93Z"/>
  <path class="cls-1" d="M8.4,388.32c-.05.11-.13.13-.23.05-.38-.23-.9-.49-1.4-.49-1.48,0-2.2,1.66-2.2,4.61,0,2.11.2,3.82.52,5.17.04.16.02.22-.13.25-.2.05-.65.13-.94.16-.14.02-.2-.05-.23-.23-.29-1.4-.47-2.99-.47-5.46,0-3.49,1.06-5.6,3.38-5.6.77,0,1.46.29,2.12.74-.13.25-.29.54-.43.79ZM15.14,392.53c0,1.3.05,2.74.16,3.98.02.16-.04.23-.16.25-.23.04-.49.05-.81.05-.2,0-.25-.07-.27-.25-.22-1.51-1.04-3.17-2.05-4.66-.13-.16-.14-.34-.04-.5.16-.22.29-.45.36-.74.77,1.13,1.35,2.16,1.8,3.1-.05-.59-.07-1.39-.07-1.94,0-1.17.09-2.56.32-3.66.02-.11.07-.16.25-.16.23,0,.61.02.92.04-.27,1.21-.41,2.77-.41,4.5Z"/>
  <path class="cls-1" d="M16.85,408.77c-.04.14-.14.22-.23.22-.18,0-.34-.09-.63-.09-.4.02-.76.05-1.15.11-1.3.16-2.5.38-3.64.7.52,1.06,1.03,2.14,1.62,3.21.32.58.5.79.83,1.04-.34.36-.68.68-1.01.92-.22.14-.47.11-.5-.22-.07-.45-.32-1.04-.58-1.58-.61-1.31-1.35-2.86-2.05-4.09-1.06-1.82-2-2.67-3.26-2.67-1.6,0-2,1.51-1.98,4.23.02,1.67.18,3.29.38,4.63.02.16-.02.22-.16.25-.29.05-.63.09-.94.11-.16.02-.23-.05-.25-.25-.16-1.48-.25-2.77-.25-4.79,0-3.11.68-5.37,3.15-5.37,1.73,0,3.06,1.22,4.45,3.51,1.33-.4,3.19-.77,4.61-.95.83-.11,1.28-.2,1.76-.4-.02.54-.07,1.1-.16,1.48Z"/>
</svg>