<?xml version="1.0" encoding="UTF-8"?>
<svg id="img" xmlns="http://www.w3.org/2000/svg" viewBox="0 0 152.65 150.2">
  <defs>
    <style>
      .cls-1 {
        fill: #321d0b;
        stroke-width: 0px;
      }
    </style>
  </defs>
  <g>
    <path class="cls-1" d="M79.92,1.14c-.37-.02-1,.03-1.03.59-.01.32.2.5.65.66l.83.29c1.15.39,1.63.9,1.59,1.78-.05,1.15-1.02,1.87-2.68,1.8-1.54-.07-1.98-.53-1.97-.91,0-.39.26-.74.33-.77,0,0,.65.5,1.64.55.57.03,1.16-.11,1.18-.64.02-.37-.35-.59-.88-.78l-.8-.29c-1.08-.39-1.43-.91-1.4-1.71.05-1.11.98-1.76,2.47-1.7,1.56.07,1.96.52,1.98.78.04.31-.23.76-.37.86,0,0-.63-.47-1.56-.51Z"/>
    <path class="cls-1" d="M87.15,2.75s.03-.1.05-.18c.04-.28-.12-.69-.73-.77-.94-.12-1.56.55-1.71,1.71-.15,1.2.26,2.01,1.31,2.15.86.11,1.51-.26,1.51-.26,0,0,.36.25.3.73-.05.5-.84.87-2.08.71-1.93-.25-2.75-1.54-2.52-3.5.22-1.75,1.49-2.96,3.26-2.73,1.49.19,1.94.97,1.81,1.66-.11.64-.71.81-1.21.5Z"/>
    <path class="cls-1" d="M91.43,2.67l.08.02c.37-.73,1.12-1.01,1.75-.88.98.21,1.11.88.92,1.68-.14.62-.47.83-1.06.69-.41-.1-.36-.22-.28-.6.07-.31.04-.62-.33-.7-.54-.11-1.1.69-1.26,1.17-.22.88-.42,1.76-.56,2.7-.05.35-.05.8-.64.67l-.53-.11c-.41-.09-.38-.42-.35-.7,0-.17.07-.45.14-.77.24-1.08.61-2.69.76-3.44.04-.26.08-.44.1-.51.08-.39.1-.72.73-.59.67.14.71.54.52,1.36Z"/>
    <path class="cls-1" d="M96.51,9.18c-1.8-.55-2.32-2.13-1.77-3.86.52-1.65,1.8-2.7,3.59-2.15,1.8.55,2.34,2.14,1.81,3.81-.54,1.71-1.84,2.75-3.63,2.21ZM97.99,4.32c-1.06-.32-1.55.46-1.85,1.43-.3,1-.33,1.97.71,2.29,1.06.32,1.58-.5,1.88-1.5.3-.98.25-1.92-.74-2.22Z"/>
    <path class="cls-1" d="M100.86,9.14c.26-.67,1.98-4.88,2.14-5.38.17-.5.28-.66.88-.42.72.28.69.63.52,1.03-.28.67-1.77,4.08-2.16,5.22-.13.37.01.39.4.53.17.05.22.17.19.31l-.11.35c-.06.19-.14.27-.34.27-.26.02-.7-.07-1.01-.19-.76-.29-.83-.88-.51-1.71Z"/>
    <path class="cls-1" d="M104.31,10.53c.29-.65,2.24-4.77,2.43-5.26.2-.49.31-.64.91-.38.7.32.65.67.47,1.05-.32.65-1.99,3.98-2.44,5.1-.15.37,0,.39.37.55.17.06.21.18.17.32l-.13.34c-.07.19-.15.26-.35.25-.27,0-.7-.11-1-.25-.74-.33-.78-.92-.42-1.73Z"/>
    <path class="cls-1" d="M112.4,9.63c.04-.08.15-.17.36-.08.8.41,1.25-.06,1.45-.34.11-.15.23-.21.43-.09.24.14.7.32.46.67-.14.22-.32.52-.44.72.2.14.85.53,1.23.72.2.11.21.24.15.36-.1.17-.24.38-.36.58-.07.11-.15.18-.33.08-.39-.24-1.25-.74-1.3-.76-.49.75-1.2,1.93-1.63,2.69-.28.48-.22.67.12.88.24.14.49.19.68.25.22.05.27.21.22.35l-.15.39c-.08.18-.17.27-.37.26-.38,0-.96-.23-1.35-.46-1-.59-1.11-1.32-.51-2.33.34-.58,1.52-2.48,1.69-2.77l-.5-.29c-.18-.11-.22-.19-.12-.35.09-.13.17-.31.26-.46Z"/>
    <path class="cls-1" d="M116.07,18.75c-1.54-1.08-1.53-2.75-.47-4.22,1.01-1.4,2.55-2,4.08-.92,1.54,1.08,1.55,2.76.53,4.18-1.05,1.45-2.61,2.04-4.13.96ZM118.99,14.59c-.91-.64-1.62-.05-2.2.78-.6.85-.93,1.76-.04,2.39.91.64,1.65.02,2.25-.83.59-.84.83-1.74,0-2.33Z"/>
    <path class="cls-1" d="M125.36,18.66c.06-.06.18-.13.37,0,.7.57,1.23.21,1.49-.03.14-.12.27-.16.44,0,.2.19.62.46.31.75-.19.19-.42.44-.58.62.16.18.72.69,1.05.97.18.15.16.28.07.38-.13.15-.31.32-.47.49-.09.1-.18.15-.33,0-.33-.32-1.07-.98-1.11-1.02-.64.63-1.58,1.64-2.16,2.29-.38.41-.36.61-.06.88.2.19.44.29.62.39.21.1.22.26.14.38l-.23.35c-.12.16-.22.23-.42.18-.37-.09-.89-.43-1.22-.74-.86-.79-.81-1.52,0-2.38.45-.49,2.01-2.11,2.24-2.35l-.43-.39c-.15-.14-.17-.23-.05-.37.11-.11.23-.27.35-.4Z"/>
    <path class="cls-1" d="M127.03,28.35c-1.28-1.38-.92-3.01.42-4.22,1.28-1.16,2.91-1.42,4.18-.05,1.28,1.38.94,3.02-.36,4.19-1.33,1.2-2.97,1.45-4.24.08ZM130.76,24.9c-.75-.82-1.57-.39-2.31.3-.77.71-1.28,1.53-.54,2.33.75.82,1.61.37,2.38-.34.75-.69,1.18-1.52.48-2.28Z"/>
    <path class="cls-1" d="M128.77,32.64c-.28-.37-.14-.57.16-.77.31-.21,3.92-2.86,5.07-3.81.21-.18.44-.54.73-.36.09.07.27.24.38.39.36.47.07.86-.41,1.14l.04.05s1.05-.31,1.87.76c.77,1.01.47,2.52-1.21,3.83-1.44,1.11-2.93,1.07-3.7.06-.66-.87-.33-1.83-.09-2.12l-.05-.06c-.65.51-1.44,1.16-1.69,1.34-.38.32-.53.29-.82-.09l-.27-.36ZM133.26,30.45l-.73.55c-.13.19-.69,1.12-.18,1.8.37.48,1.08.66,2.15-.16,1.07-.81,1.33-1.7.9-2.26-.4-.52-1.23-.63-2.14.07Z"/>
    <path class="cls-1" d="M141.02,38.88c-.18-.33-.56-.83-1.05-.56-.28.16-.32.44-.21.9l.2.86c.28,1.18.1,1.86-.66,2.29-1.01.57-2.13.12-2.94-1.32-.76-1.34-.6-1.96-.27-2.16.32-.21.76-.17.83-.12,0,0-.08.82.4,1.68.28.5.71.92,1.17.67.33-.18.31-.61.19-1.16l-.18-.83c-.24-1.13.01-1.7.71-2.09.97-.55,2.01-.1,2.75,1.2.77,1.36.6,1.93.38,2.09-.24.2-.77.21-.93.14,0,0,.06-.78-.39-1.6Z"/>
    <path class="cls-1" d="M143.47,45.85s.1-.02.18-.06c.26-.12.52-.47.27-1.03-.39-.86-1.29-1.03-2.35-.54-1.1.51-1.57,1.29-1.13,2.25.36.79,1.02,1.14,1.02,1.14,0,0-.02.43-.46.64-.46.22-1.18-.26-1.7-1.39-.81-1.77-.15-3.15,1.64-3.99,1.6-.74,3.3-.3,4.04,1.32.63,1.37.2,2.16-.44,2.42-.6.25-1.06-.18-1.06-.76Z"/>
    <path class="cls-1" d="M145.81,49.45l.03.07c.82-.07,1.45.42,1.67,1.02.34.94-.16,1.4-.94,1.67-.6.21-.96.04-1.14-.53-.13-.4,0-.42.36-.55.3-.11.55-.29.42-.66-.19-.52-1.17-.57-1.66-.45-.86.28-1.71.57-2.59.95-.32.14-.7.38-.91-.18l-.18-.51c-.14-.39.15-.55.42-.67.14-.09.42-.17.73-.29,1.05-.37,2.61-.91,3.32-1.17.24-.1.42-.16.48-.19.37-.14.66-.3.88.31.23.64-.09.89-.88,1.16Z"/>
    <path class="cls-1" d="M142.97,57.2c-.49-1.82.58-3.09,2.34-3.54,1.67-.43,3.24.1,3.72,1.9.49,1.82-.57,3.12-2.27,3.55-1.74.44-3.31-.1-3.79-1.91ZM147.88,55.88c-.29-1.07-1.21-1.08-2.19-.81-1.01.27-1.85.76-1.56,1.81.29,1.07,1.26,1.07,2.27.8.99-.26,1.75-.8,1.49-1.8Z"/>
    <path class="cls-1" d="M145.31,60.88c.7-.13,5.19-.9,5.7-1.03.51-.12.71-.11.83.52.14.76-.17.92-.6.99-.72.11-4.4.66-5.58.93-.39.08-.33.22-.24.62.04.17-.03.27-.16.32l-.35.09c-.19.05-.3.02-.41-.15-.15-.22-.31-.63-.37-.96-.15-.8.3-1.17,1.18-1.33Z"/>
    <path class="cls-1" d="M145.95,64.52c.71-.1,5.23-.62,5.75-.73.52-.09.71-.07.8.57.1.76-.22.91-.65.95-.72.08-4.42.42-5.62.63-.39.06-.34.2-.27.6.03.17-.04.27-.18.31l-.36.07c-.19.04-.3,0-.4-.17-.14-.22-.28-.65-.32-.98-.11-.81.37-1.15,1.25-1.27Z"/>
    <path class="cls-1" d="M151.01,70.93c.09,0,.22.04.26.26.08.9.71,1.03,1.06,1.05.19.02.3.08.31.32,0,.27.1.77-.32.75-.26,0-.61,0-.85.01-.02.24,0,1,.04,1.43.02.23-.09.31-.22.31-.2,0-.45,0-.68,0-.13,0-.23-.03-.24-.24,0-.46-.04-1.45-.04-1.51-.89-.02-2.28,0-3.15.04-.56.01-.69.17-.68.57,0,.27.1.51.15.71.07.22-.04.34-.18.37l-.42.08c-.2.03-.32,0-.42-.18-.2-.33-.31-.94-.32-1.39-.03-1.17.53-1.64,1.71-1.66.67-.02,2.92-.02,3.25-.03v-.58c-.02-.21.03-.29.22-.29.15,0,.35-.02.53-.03Z"/>
    <path class="cls-1" d="M145.21,78.87c.1-1.88,1.52-2.76,3.33-2.64,1.72.12,3.05,1.1,2.95,2.97-.1,1.88-1.52,2.78-3.26,2.67-1.79-.12-3.11-1.13-3.01-3ZM150.29,79.15c.06-1.11-.82-1.4-1.83-1.46-1.04-.06-1.99.15-2.05,1.23-.06,1.11.86,1.41,1.9,1.47,1.02.06,1.92-.22,1.97-1.25Z"/>
    <path class="cls-1" d="M150.22,86.7c.09.02.21.08.2.31-.11.9.48,1.15.82,1.25.18.06.28.14.23.38-.05.27-.06.77-.47.66-.26-.06-.59-.12-.83-.17-.07.23-.2.98-.26,1.41-.03.23-.15.28-.28.26-.19-.04-.44-.09-.67-.13-.13-.02-.22-.07-.18-.28.09-.45.26-1.43.27-1.48-.87-.21-2.23-.47-3.09-.61-.55-.1-.71.03-.78.42-.05.27,0,.52,0,.73.02.23-.11.33-.25.32h-.42c-.2-.03-.31-.08-.38-.27-.12-.36-.11-.98-.03-1.43.21-1.15.86-1.5,2.01-1.27.66.12,2.86.58,3.18.64l.11-.57c.04-.21.11-.27.29-.24.15.04.35.05.52.08Z"/>
    <path class="cls-1" d="M142.9,93.22c.49-1.82,2.06-2.38,3.81-1.89,1.66.47,2.75,1.72,2.26,3.52-.49,1.82-2.07,2.4-3.75,1.92-1.73-.49-2.81-1.75-2.32-3.56ZM147.81,94.56c.29-1.07-.51-1.54-1.48-1.81-1.01-.27-1.98-.27-2.26.78-.29,1.07.54,1.56,1.55,1.84.99.27,1.92.19,2.19-.81Z"/>
    <path class="cls-1" d="M140.17,97.01c.16-.43.41-.42.74-.27.34.15,4.5,1.82,5.92,2.29.26.09.7.09.7.43,0,.11-.06.35-.13.53-.21.56-.69.51-1.19.25l-.02.06s.82.72.34,1.99c-.45,1.18-1.89,1.73-3.9.99-1.7-.63-2.46-1.92-2.01-3.12.39-1.02,1.38-1.24,1.75-1.2l.03-.07c-.78-.28-1.74-.62-2.03-.72-.47-.16-.52-.29-.35-.75l.16-.42ZM144.4,99.67l-.85-.32c-.23-.02-1.32,0-1.62.8-.21.57.01,1.26,1.27,1.74s2.15.24,2.4-.43c.23-.62-.11-1.37-1.19-1.78Z"/>
    <path class="cls-1" d="M139.6,113.71c.19-.32.46-.89-.02-1.19-.27-.17-.54-.07-.89.25l-.66.59c-.9.82-1.58,1-2.33.54-.99-.6-1.15-1.8-.28-3.21.8-1.31,1.42-1.48,1.75-1.29.34.18.52.59.51.66,0,0-.75.33-1.27,1.17-.3.49-.46,1.07-.01,1.35.32.19.68-.02,1.11-.39l.64-.56c.87-.76,1.49-.82,2.18-.4.95.58,1.07,1.71.29,2.99-.81,1.33-1.4,1.46-1.64,1.36-.29-.11-.55-.57-.58-.74,0,0,.71-.32,1.2-1.12Z"/>
    <path class="cls-1" d="M134.7,119.25s.07.08.14.13c.23.17.66.23,1.03-.27.56-.76.27-1.63-.67-2.32-.98-.71-1.88-.74-2.51.11-.51.7-.5,1.45-.5,1.45,0,0-.39.19-.78-.08-.42-.29-.35-1.16.38-2.16,1.15-1.57,2.68-1.66,4.28-.52,1.43,1.03,1.87,2.73.82,4.17-.89,1.21-1.79,1.23-2.32.79-.51-.4-.36-1.01.15-1.3Z"/>
    <path class="cls-1" d="M132.71,123.05l-.05.06c.46.67.34,1.47-.08,1.95-.65.76-1.3.55-1.92,0-.48-.43-.5-.81-.09-1.26.28-.31.37-.21.66.04.24.21.52.34.77.04.36-.42-.07-1.3-.42-1.67-.66-.61-1.33-1.21-2.09-1.8-.28-.21-.68-.43-.28-.88l.35-.41c.27-.32.55-.13.78.04.15.08.36.28.6.49.83.73,2.07,1.83,2.64,2.33.21.16.35.29.4.33.3.26.58.43.16.92-.45.52-.82.36-1.44-.2Z"/>
    <path class="cls-1" d="M124.55,124.37c1.35-1.31,2.99-1.01,4.24.31,1.19,1.25,1.5,2.88.16,4.18-1.35,1.32-3,1.02-4.21-.24-1.24-1.3-1.53-2.94-.19-4.24ZM128.11,128.01c.79-.78.34-1.58-.36-2.31-.73-.75-1.57-1.24-2.34-.48-.79.78-.32,1.62.41,2.37.71.73,1.56,1.14,2.3.42Z"/>
    <path class="cls-1" d="M122.5,128.2c.46.55,3.33,4.08,3.7,4.47.36.39.44.56-.05.98-.59.5-.88.3-1.15-.04-.45-.57-2.73-3.51-3.55-4.41-.26-.29-.35-.18-.66.09-.13.12-.25.11-.36.02l-.25-.26c-.14-.14-.17-.25-.07-.43.11-.24.4-.58.65-.79.62-.53,1.17-.31,1.74.37Z"/>
    <path class="cls-1" d="M119.63,130.56c.43.57,3.11,4.25,3.45,4.66.34.41.41.58-.1.98-.61.46-.9.25-1.15-.1-.42-.59-2.54-3.65-3.31-4.59-.25-.31-.34-.2-.66.06-.13.11-.26.1-.36,0l-.24-.28c-.13-.15-.15-.26-.05-.43.13-.23.43-.56.69-.76.65-.49,1.18-.24,1.72.47Z"/>
    <path class="cls-1" d="M116.53,138.11c.05.08.08.21-.1.35-.75.51-.55,1.12-.39,1.44.08.17.08.3-.13.42-.24.14-.62.46-.81.08-.13-.23-.3-.53-.43-.73-.22.1-.87.49-1.23.73-.19.13-.32.07-.38-.04-.1-.17-.22-.39-.34-.59-.07-.11-.09-.22.09-.32.4-.23,1.25-.75,1.29-.77-.42-.79-1.12-1.98-1.58-2.72-.29-.48-.49-.52-.83-.31-.24.14-.4.34-.55.48-.15.17-.32.14-.41.03l-.27-.33c-.12-.16-.15-.28-.05-.46.19-.33.67-.73,1.05-.96,1-.6,1.69-.34,2.29.67.34.58,1.45,2.53,1.62,2.82l.5-.3c.18-.11.27-.1.37.06.07.14.19.3.28.45Z"/>
    <path class="cls-1" d="M106.77,136.94c1.69-.83,3.15-.03,3.93,1.61.74,1.56.53,3.2-1.15,4.02-1.69.83-3.17.04-3.92-1.54-.77-1.62-.54-3.27,1.14-4.09ZM109.01,141.5c1-.49.82-1.4.38-2.3-.46-.94-1.1-1.67-2.08-1.19-1,.49-.81,1.44-.35,2.38.45.92,1.12,1.57,2.05,1.11Z"/>
    <path class="cls-1" d="M102.38,145.14c.03.08.03.22-.17.33-.84.34-.77.98-.69,1.32.04.18.01.31-.22.39-.26.09-.71.32-.81-.09-.07-.25-.18-.58-.26-.81-.24.06-.96.3-1.36.46-.21.08-.32,0-.37-.12-.06-.19-.13-.43-.21-.65-.04-.12-.04-.23.16-.3.44-.14,1.38-.47,1.43-.48-.24-.86-.68-2.17-.97-2.99-.18-.53-.37-.61-.74-.48-.26.09-.46.25-.63.35-.19.13-.34.07-.4-.06l-.2-.38c-.08-.18-.09-.31.04-.46.25-.28.8-.57,1.23-.72,1.1-.37,1.73.02,2.09,1.14.21.64.88,2.78.99,3.09l.55-.19c.2-.07.29-.04.35.14.04.15.12.33.18.5Z"/>
    <path class="cls-1" d="M93.08,141.94c1.83-.45,3.08.64,3.5,2.41.4,1.68-.16,3.24-1.98,3.69-1.83.45-3.11-.63-3.51-2.34-.41-1.75.17-3.31,1.98-3.76ZM94.31,146.88c1.08-.27,1.1-1.19.85-2.17-.25-1.01-.72-1.86-1.78-1.6-1.08.27-1.1,1.24-.85,2.25.25.99.77,1.77,1.77,1.52Z"/>
    <path class="cls-1" d="M88.5,141.39c.46-.07.57.15.6.51.03.37.62,4.81.89,6.28.05.27.26.65-.03.82-.1.05-.34.12-.52.14-.59.09-.79-.35-.8-.91h-.07s-.23,1.08-1.57,1.28c-1.25.19-2.43-.81-2.77-2.91-.28-1.79.48-3.08,1.74-3.27,1.08-.16,1.76.59,1.9.94h.08c-.13-.83-.32-1.83-.36-2.14-.09-.49,0-.6.48-.67l.45-.07ZM88.25,146.38l-.13-.9c-.1-.21-.65-1.15-1.49-1.02-.6.09-1.1.63-.9,1.96s.84,1.99,1.55,1.88c.65-.1,1.14-.77.97-1.91Z"/>
    <path class="cls-1" d="M73.63,149.06c.37.01,1-.04,1.02-.6.01-.32-.2-.5-.66-.65l-.84-.28c-1.15-.38-1.64-.88-1.61-1.76.04-1.15,1-1.88,2.66-1.82,1.54.06,1.98.51,1.98.9,0,.39-.26.74-.33.77,0,0-.65-.5-1.64-.53-.57-.02-1.16.12-1.18.65-.01.37.35.58.89.77l.8.28c1.09.38,1.44.9,1.41,1.7-.04,1.11-.97,1.77-2.46,1.72-1.56-.06-1.96-.5-1.99-.77-.04-.31.23-.76.36-.87,0,0,.63.46,1.57.5Z"/>
    <path class="cls-1" d="M66.41,147.52s-.03.1-.04.18c-.03.28.13.69.74.76.94.11,1.55-.57,1.69-1.72.13-1.2-.28-2.01-1.33-2.13-.86-.1-1.51.27-1.51.27,0,0-.36-.24-.31-.72.05-.5.84-.88,2.07-.73,1.93.23,2.77,1.52,2.55,3.48-.2,1.75-1.46,2.97-3.23,2.76-1.5-.18-1.95-.95-1.83-1.64.1-.64.71-.81,1.2-.51Z"/>
    <path class="cls-1" d="M62.12,147.64l-.08-.02c-.36.73-1.11,1.02-1.74.89-.98-.2-1.11-.87-.94-1.67.14-.62.46-.84,1.05-.7.41.09.36.22.28.6-.06.31-.04.62.34.7.54.11,1.09-.7,1.25-1.18.21-.88.4-1.76.54-2.71.05-.35.04-.8.63-.68l.53.11c.41.08.39.42.35.7,0,.17-.07.45-.13.77-.23,1.09-.58,2.7-.73,3.44-.04.26-.08.44-.09.51-.08.39-.09.72-.73.59-.67-.13-.71-.54-.53-1.35Z"/>
    <path class="cls-1" d="M56.97,141.18c1.81.53,2.34,2.11,1.81,3.84-.51,1.65-1.77,2.71-3.57,2.19-1.81-.53-2.36-2.11-1.85-3.79.53-1.71,1.81-2.77,3.61-2.25ZM55.54,146.06c1.07.31,1.55-.47,1.83-1.45.29-1,.31-1.97-.73-2.28-1.07-.31-1.57.51-1.87,1.52-.29.98-.23,1.92.76,2.21Z"/>
    <path class="cls-1" d="M52.62,141.26c-.25.67-1.94,4.9-2.09,5.41-.17.5-.27.66-.88.43-.72-.27-.69-.63-.53-1.02.28-.67,1.73-4.1,2.12-5.25.13-.37-.02-.39-.4-.53-.17-.05-.22-.17-.19-.31l.11-.35c.06-.19.14-.27.34-.27.26-.02.7.07,1.01.18.76.29.84.87.52,1.7Z"/>
    <path class="cls-1" d="M49.17,139.91c-.29.65-2.19,4.79-2.37,5.29-.19.49-.31.65-.9.39-.71-.31-.66-.66-.48-1.05.31-.66,1.94-4,2.39-5.12.15-.37,0-.39-.37-.55-.17-.06-.21-.18-.17-.32l.13-.34c.07-.19.15-.26.35-.25.27,0,.7.1,1,.23.75.33.79.91.43,1.73Z"/>
    <path class="cls-1" d="M41.06,140.88c-.04.08-.15.17-.35.09-.81-.4-1.25.07-1.45.36-.11.15-.22.21-.43.09-.24-.14-.71-.32-.47-.66.14-.22.31-.52.43-.73-.2-.14-.86-.52-1.24-.71-.21-.11-.22-.24-.15-.35.1-.17.24-.38.35-.58.07-.12.14-.18.33-.08.39.24,1.26.73,1.31.75.48-.75,1.18-1.95,1.61-2.71.28-.49.21-.68-.13-.88-.24-.14-.49-.18-.69-.24-.22-.05-.27-.21-.22-.34l.15-.4c.08-.18.17-.27.37-.27.38,0,.96.22,1.35.45,1.01.58,1.13,1.31.53,2.32-.33.58-1.5,2.5-1.67,2.79l.51.29c.18.1.22.19.13.35-.09.13-.17.31-.25.46Z"/>
    <path class="cls-1" d="M37.33,131.79c1.55,1.07,1.56,2.74.51,4.22-1,1.41-2.53,2.02-4.07.96-1.55-1.07-1.58-2.75-.56-4.17,1.04-1.46,2.59-2.06,4.13-1ZM34.44,135.98c.91.63,1.62.04,2.2-.8.59-.86.92-1.77.02-2.39-.91-.63-1.65,0-2.25.85-.58.84-.82,1.75.03,2.33Z"/>
    <path class="cls-1" d="M28.02,131.95c-.06.07-.18.13-.37.01-.71-.56-1.23-.19-1.49.04-.14.12-.26.16-.44,0-.2-.18-.62-.46-.32-.75.18-.19.41-.44.58-.62-.17-.18-.73-.69-1.06-.96-.18-.15-.16-.28-.07-.38.13-.15.31-.33.46-.5.09-.1.18-.15.33,0,.34.32,1.08.97,1.12,1.01.63-.63,1.57-1.65,2.14-2.3.38-.42.35-.62.06-.88-.2-.18-.44-.28-.62-.38-.21-.1-.22-.26-.14-.38l.23-.35c.12-.16.22-.23.42-.18.37.08.89.42,1.23.72.87.78.83,1.52.03,2.38-.45.5-1.99,2.13-2.21,2.37l.43.39c.15.14.17.23.05.37-.11.11-.23.27-.35.4Z"/>
    <path class="cls-1" d="M26.28,122.3c1.29,1.37.95,3-.38,4.23-1.27,1.17-2.9,1.45-4.18.08-1.29-1.37-.97-3.02.32-4.2,1.32-1.21,2.96-1.47,4.24-.11ZM22.58,125.78c.76.81,1.58.37,2.31-.32.76-.72,1.27-1.54.52-2.33-.76-.81-1.62-.35-2.38.36-.75.7-1.17,1.54-.46,2.29Z"/>
    <path class="cls-1" d="M24.48,118c.28.37.15.57-.15.77-.31.21-3.89,2.9-5.04,3.86-.21.18-.44.55-.73.37-.09-.07-.27-.24-.38-.38-.36-.47-.08-.86.4-1.15l-.04-.05s-1.04.32-1.87-.75c-.78-1-.49-2.51,1.18-3.84,1.43-1.12,2.92-1.1,3.7-.09.67.86.34,1.82.11,2.11l.05.06c.64-.51,1.43-1.17,1.67-1.36.38-.32.52-.29.82.09l.28.36ZM20.02,120.23l.72-.56c.13-.19.68-1.13.16-1.8-.37-.48-1.09-.65-2.15.18-1.06.82-1.32,1.71-.88,2.27.4.52,1.23.62,2.14-.09Z"/>
    <path class="cls-1" d="M10.53,108.83c.17.33.53.85,1.03.6.28-.15.34-.42.25-.89l-.16-.87c-.23-1.19-.03-1.86.75-2.27,1.03-.53,2.13-.04,2.89,1.43.71,1.37.53,1.98.19,2.17-.33.2-.77.14-.83.09,0,0,.11-.81-.34-1.69-.26-.51-.68-.95-1.14-.71-.33.17-.34.59-.24,1.15l.15.84c.2,1.13-.08,1.7-.79,2.07-.99.51-2.02.02-2.7-1.31-.71-1.39-.53-1.96-.31-2.11.25-.19.78-.18.93-.11,0,0-.09.78.33,1.61Z"/>
    <path class="cls-1" d="M8.34,101.75s-.1.02-.18.05c-.26.11-.54.45-.31,1.02.36.88,1.25,1.08,2.33.64,1.12-.47,1.62-1.22,1.21-2.2-.33-.8-.97-1.18-.97-1.18,0,0,.04-.43.48-.63.46-.2,1.17.3,1.64,1.45.74,1.8.02,3.15-1.79,3.92-1.62.68-3.31.17-3.99-1.48-.57-1.39-.12-2.17.54-2.4.61-.23,1.05.22,1.03.8Z"/>
    <path class="cls-1" d="M6.14,98.07l-.02-.07c-.82.04-1.43-.48-1.63-1.09-.3-.95.21-1.4,1-1.64.61-.18.96,0,1.12.58.12.4-.02.42-.38.54-.3.1-.56.27-.44.64.17.52,1.14.62,1.64.52.87-.24,1.73-.51,2.63-.85.33-.13.72-.36.9.22l.16.51c.13.4-.17.54-.44.65-.15.08-.42.16-.74.26-1.06.33-2.64.81-3.36,1.04-.25.09-.43.15-.49.17-.38.12-.68.27-.87-.34-.21-.65.12-.88.92-1.13Z"/>
    <path class="cls-1" d="M9.27,90.41c.42,1.83-.7,3.07-2.47,3.45-1.69.36-3.23-.22-3.65-2.05-.42-1.83.7-3.09,2.41-3.46,1.75-.38,3.3.23,3.72,2.05ZM4.31,91.54c.25,1.08,1.17,1.12,2.16.9,1.02-.23,1.88-.69,1.63-1.75-.25-1.08-1.21-1.12-2.23-.89-1,.23-1.78.73-1.55,1.74Z"/>
    <path class="cls-1" d="M7.08,86.66c-.71.11-5.22.7-5.74.81-.52.1-.71.08-.81-.56-.11-.76.21-.91.63-.96.72-.09,4.42-.49,5.61-.71.39-.07.34-.21.26-.61-.04-.17.04-.27.17-.32l.36-.08c.19-.04.3-.01.4.16.14.22.29.65.33.97.12.8-.35,1.15-1.23,1.29Z"/>
    <path class="cls-1" d="M6.57,82.99c-.71.07-5.26.42-5.78.51-.52.07-.71.05-.78-.6-.07-.77.26-.9.68-.93.73-.05,4.44-.26,5.64-.42.39-.05.35-.19.3-.59-.03-.17.05-.27.19-.31l.36-.06c.2-.03.3,0,.39.18.13.23.25.66.29.99.08.81-.41,1.13-1.3,1.22Z"/>
    <path class="cls-1" d="M1.75,76.39c-.09,0-.22-.05-.25-.27-.04-.9-.67-1.06-1.02-1.09-.19-.03-.29-.09-.29-.34,0-.27-.06-.77.35-.73.26.02.6.02.85.03.03-.24.04-1,.02-1.43,0-.23.1-.31.24-.3.2,0,.45.02.68.02.13,0,.23.04.23.25-.02.46-.02,1.45-.03,1.51.89.06,2.28.09,3.15.1.56,0,.7-.14.7-.54,0-.27-.08-.52-.12-.72-.06-.22.05-.34.19-.36l.42-.06c.2-.02.32.02.42.19.18.33.27.95.26,1.4-.02,1.17-.6,1.62-1.78,1.59-.67-.01-2.92-.1-3.25-.11v.58c-.01.21-.07.29-.26.28-.15-.01-.35,0-.53,0Z"/>
    <path class="cls-1" d="M7.85,68.7c-.17,1.87-1.62,2.7-3.42,2.51-1.72-.18-3-1.21-2.83-3.08.17-1.87,1.62-2.72,3.36-2.54,1.78.19,3.07,1.24,2.9,3.11ZM2.79,68.24c-.1,1.11.76,1.43,1.77,1.52,1.04.1,2-.07,2.09-1.16.1-1.11-.81-1.44-1.85-1.54-1.02-.09-1.92.14-2.02,1.17Z"/>
    <path class="cls-1" d="M3.15,60.66c-.09-.02-.21-.09-.19-.31.15-.89-.43-1.17-.77-1.28-.18-.06-.27-.15-.22-.39.06-.27.09-.77.5-.64.25.07.59.14.82.2.08-.23.24-.97.32-1.39.04-.23.17-.28.29-.25.19.04.44.11.66.16.13.03.22.08.17.29-.11.45-.32,1.42-.33,1.47.86.24,2.21.56,3.06.74.55.12.71,0,.8-.38.06-.27.03-.52.03-.73-.02-.23.12-.32.26-.31l.42.03c.2.02.31.08.37.27.11.36.07.99-.03,1.43-.26,1.14-.92,1.46-2.06,1.19-.65-.15-2.83-.7-3.15-.77l-.13.57c-.05.2-.12.27-.3.23-.15-.04-.35-.07-.52-.11Z"/>
    <path class="cls-1" d="M10.71,54.41c-.56,1.79-2.15,2.3-3.88,1.73-1.64-.54-2.68-1.82-2.12-3.61.56-1.8,2.16-2.32,3.82-1.78,1.71.56,2.74,1.86,2.18,3.65ZM5.86,52.88c-.33,1.06.45,1.56,1.41,1.86,1,.31,1.97.35,2.29-.69.33-1.06-.48-1.58-1.48-1.9-.98-.31-1.91-.27-2.22.72Z"/>
    <path class="cls-1" d="M13.58,50.75c-.18.43-.42.41-.75.25-.34-.17-4.43-1.98-5.83-2.51-.26-.1-.69-.11-.68-.46.01-.11.08-.35.15-.52.23-.55.71-.49,1.2-.21l.03-.06s-.79-.75-.26-2c.49-1.17,1.96-1.66,3.93-.85,1.68.7,2.39,2.01,1.89,3.19-.42,1-1.42,1.19-1.79,1.13l-.03.07c.76.31,1.72.68,2,.8.46.17.51.31.32.76l-.18.42ZM9.45,47.94l.84.36c.23.03,1.32.04,1.65-.74.24-.56.03-1.26-1.2-1.79-1.24-.52-2.14-.32-2.41.34-.26.61.06,1.38,1.13,1.83Z"/>
    <path class="cls-1" d="M14.78,34.09c-.21.31-.49.88-.02,1.19.27.18.53.09.9-.22l.68-.57c.93-.78,1.61-.94,2.35-.45.96.64,1.08,1.84.16,3.22-.85,1.28-1.47,1.42-1.8,1.22-.33-.2-.5-.61-.49-.68,0,0,.77-.3,1.31-1.12.32-.48.5-1.05.06-1.35-.31-.21-.68,0-1.12.35l-.66.54c-.89.73-1.52.76-2.19.32-.93-.62-1-1.75-.18-3,.86-1.3,1.45-1.41,1.69-1.29.29.12.53.59.55.76,0,0-.73.3-1.24,1.08Z"/>
    <path class="cls-1" d="M19.9,28.72s-.06-.08-.13-.13c-.22-.18-.66-.25-1.04.23-.59.74-.33,1.62.58,2.34.96.74,1.86.81,2.51-.02.54-.68.56-1.43.56-1.43,0,0,.39-.18.78.11.4.31.31,1.17-.46,2.14-1.21,1.53-2.74,1.56-4.3.36-1.39-1.08-1.76-2.8-.66-4.2.94-1.18,1.83-1.16,2.35-.7.5.42.32,1.03-.2,1.29Z"/>
    <path class="cls-1" d="M22.04,25l.05-.06c-.44-.69-.29-1.49.15-1.95.68-.73,1.32-.5,1.92.07.46.44.47.83.04,1.26-.29.3-.38.19-.66-.07-.23-.22-.51-.36-.77-.08-.38.4.02,1.3.35,1.68.64.64,1.29,1.26,2.03,1.88.27.22.66.45.25.89l-.37.39c-.29.31-.56.11-.78-.07-.14-.09-.34-.29-.59-.52-.8-.77-2-1.91-2.55-2.43-.2-.17-.34-.3-.38-.34-.29-.27-.57-.46-.13-.93.47-.5.83-.32,1.43.25Z"/>
    <path class="cls-1" d="M30.24,24c-1.4,1.26-3.02.89-4.22-.47-1.14-1.3-1.39-2.93,0-4.19,1.4-1.26,3.04-.91,4.2.4,1.19,1.35,1.42,2.99.03,4.25ZM26.82,20.23c-.82.75-.41,1.57.27,2.32.7.78,1.52,1.3,2.33.57.83-.75.38-1.61-.32-2.39-.69-.76-1.51-1.2-2.28-.5Z"/>
    <path class="cls-1" d="M32.44,20.25c-.44-.56-3.17-4.21-3.52-4.6-.34-.4-.42-.58.09-.98.61-.47.89-.27,1.15.08.43.59,2.59,3.61,3.37,4.54.25.31.34.19.66-.07.13-.12.25-.1.36,0l.24.27c.13.15.16.25.06.43-.12.24-.42.57-.68.77-.64.5-1.18.26-1.72-.44Z"/>
    <path class="cls-1" d="M35.38,18.01c-.41-.59-2.95-4.37-3.28-4.78-.32-.42-.39-.6.14-.97.63-.44.91-.22,1.14.14.4.61,2.4,3.74,3.13,4.71.24.32.33.21.66-.03.14-.11.26-.09.36.02l.23.29c.12.16.14.26.03.43-.14.23-.45.54-.72.73-.67.47-1.19.2-1.7-.53Z"/>
    <path class="cls-1" d="M38.79,10.57c-.04-.08-.07-.21.11-.35.76-.48.59-1.1.45-1.42-.07-.17-.07-.3.15-.42.24-.13.64-.44.81-.05.12.24.28.54.4.75.22-.1.89-.46,1.25-.69.2-.12.32-.06.38.05.09.17.21.4.32.6.06.12.08.22-.1.32-.41.21-1.27.7-1.32.72.39.8,1.04,2.02,1.47,2.78.27.49.47.53.82.34.24-.13.41-.33.56-.46.16-.16.32-.12.41,0l.26.33c.11.16.14.28.04.46-.2.32-.69.71-1.09.92-1.02.56-1.7.28-2.26-.76-.32-.59-1.35-2.58-1.51-2.87l-.51.28c-.18.1-.28.09-.37-.08-.06-.14-.18-.3-.26-.46Z"/>
    <path class="cls-1" d="M48.47,12.12c-1.72.76-3.15-.09-3.87-1.76-.68-1.59-.41-3.22,1.3-3.98,1.72-.76,3.17.08,3.86,1.69.71,1.65.41,3.29-1.3,4.04ZM46.4,7.48c-1.02.45-.87,1.36-.46,2.29.42.96,1.04,1.71,2.03,1.26,1.02-.45.87-1.41.44-2.36-.42-.93-1.07-1.61-2.01-1.19Z"/>
    <path class="cls-1" d="M53.2,4.09c-.03-.08-.02-.22.18-.32.85-.31.81-.95.74-1.3-.03-.19,0-.31.23-.38.26-.08.72-.29.8.12.06.26.16.58.23.82.24-.05.97-.26,1.37-.41.22-.08.32,0,.36.13.06.19.12.44.18.66.04.13.03.23-.17.29-.45.12-1.39.41-1.44.43.21.87.59,2.2.85,3.03.16.54.34.62.72.51.26-.08.47-.23.65-.33.19-.13.34-.05.4.08l.18.38c.08.18.08.31-.06.45-.26.27-.83.54-1.26.67-1.12.33-1.72-.09-2.04-1.22-.19-.64-.77-2.81-.87-3.13l-.56.17c-.2.06-.29.03-.34-.15-.03-.15-.11-.33-.16-.5Z"/>
    <path class="cls-1" d="M62.34,7.65c-1.84.38-3.06-.76-3.41-2.54-.33-1.7.28-3.23,2.11-3.61,1.84-.38,3.08.75,3.41,2.47.34,1.76-.29,3.3-2.12,3.68ZM61.3,2.67c-1.09.23-1.14,1.15-.94,2.14.21,1.02.65,1.89,1.72,1.67,1.09-.23,1.15-1.19.93-2.22-.21-1-.7-1.8-1.71-1.59Z"/>
    <path class="cls-1" d="M66.91,8.37c-.46.05-.56-.17-.58-.53-.02-.37-.43-4.84-.65-6.32-.04-.27-.24-.66.07-.82.11-.04.34-.1.53-.12.59-.06.77.38.77.95h.07s.27-1.07,1.62-1.21c1.26-.14,2.4.9,2.66,3.02.21,1.8-.59,3.07-1.86,3.21-1.08.12-1.73-.66-1.86-1.01h-.08c.1.83.25,1.84.28,2.15.08.49-.02.6-.5.65l-.45.05ZM67.35,3.4l.1.91c.09.21.61,1.17,1.45,1.08.6-.07,1.12-.59.97-1.92-.15-1.33-.77-2.02-1.48-1.94-.66.07-1.17.73-1.04,1.88Z"/>
  </g>
  <g>
    <path class="cls-1" d="M62.43,63.03l-.03,1.46c-.03.88-.17,1.09-1.36,1.09l-5.54.03c-.17,4.69-.07,15.67-.07,16.35,0,1.16.61,2.75-1.46,2.75h-1.73c-1.56,0-1.63-1.36-1.6-2.41.07-1.02.2-12.85.17-16.73-1.02,0-4.96-.03-5.44,0-.99.1-1.29-.37-1.29-1.33l.03-1.56c0-.88.17-1.09,1.36-1.09,0,0,13.8.14,15.74-.03.99-.07,1.26.54,1.22,1.46Z"/>
    <path class="cls-1" d="M75.66,85.06c-7.07,0-10.47-5.1-10.44-11.9.03-6.7,3.33-11.9,10.4-11.9,6.7,0,10.4,5.17,10.4,11.9-.07,6.76-3.64,11.9-10.37,11.9ZM75.63,65.14c-4.32,0-5.71,3.71-5.71,7.99.03,4.22,1.39,8.06,5.71,8.06s5.64-3.91,5.64-8.06-1.43-7.99-5.64-7.99Z"/>
    <path class="cls-1" d="M99.66,77.69h-4.04c0,.88,0,3.98.03,4.28.07,1.16.61,2.75-1.46,2.75h-1.73c-1.56,0-1.6-1.39-1.56-2.45.07-2.69.07-17.13.07-17.92-.03-1.16-.58-2.75,1.5-2.75h6.97c5.88,0,9.11,3.47,9.04,7.99-.07,4.45-3.09,8.09-8.81,8.09ZM99.22,64.97h-3.64c-.14,1.56,0,7.68-.03,9.45h3.6c3.26,0,4.69-1.84,4.73-4.59.03-2.72-1.29-4.86-4.66-4.86Z"/>
  </g>
</svg>