<?xml version="1.0" encoding="UTF-8"?>
<svg id="img" xmlns="http://www.w3.org/2000/svg" viewBox="0 0 455.93 129.4">
  <defs>
    <style>
      .cls-1 {
        fill: #321d0b;
        stroke-width: 0px;
      }

      .cls-2 {
        fill: none;
        stroke: #321d0b;
        stroke-miterlimit: 10;
        stroke-width: 3px;
      }
    </style>
  </defs>
  <path class="cls-2" d="M2.67,19.83C1.45,13.03-.45,5.69,9.34,5.69h9.38c9.52,0,10.74,7.34,11.15,10.74,1.9,10.88,8.3,50.05,10.06,60.25h.82c1.63-14.69,8.02-55.62,8.84-59.98.95-6.53,1.63-11.02,10.34-11.02h17.14c8.57,0,9.79,7.48,10.2,11.02,1.36,10.61,7.48,50.05,9.38,60.11h.82c1.5-14.42,7.62-56.03,8.3-60.25,1.09-6.66,1.63-10.88,10.34-10.88h13.33c6.8,0,6.66,7.34,5.44,13.33-3.4,16.32-13.19,57.8-14.55,63.51-1.36,6.66-2.45,15.64-14.01,15.64h-16.86c-5.98,0-11.02-2.45-11.7-10.06-.82-7.07-7.21-48.28-9.11-58.75h-.82c-1.77,14.96-7.48,50.05-8.7,59.02-.95,7.62-5.44,9.79-11.7,9.79h-17.54c-10.2,0-11.97-8.16-13.46-13.74-1.63-7.07-11.83-54.67-13.74-64.6Z"/>
  <path class="cls-2" d="M179.88,22.01c25.02,0,37.94,16.86,37.67,38.76-.27,21.9-12.65,38.9-37.4,38.9s-37.4-17-37.26-39.17c.14-21.62,12.38-38.49,36.99-38.49ZM190.49,60.5c0-8.57-2.04-16.05-10.34-16.05-8.98,0-10.61,7.48-10.61,16.05s1.9,16.73,10.34,16.73c8.98,0,10.61-7.89,10.61-16.73Z"/>
  <path class="cls-2" d="M230.34,81.44c.41-16.46.82-36.04.68-42.84-.14-2.99-.41-5.3-.41-7.07,0-5.71.68-9.52,10.61-9.52,12.1,0,14.42,7.62,14.28,16.86h.95c1.22-9.25,9.38-16.86,18.63-16.86,12.38,0,15.91,6.8,15.23,19.86-.41,9.52-6.39,16.05-15.37,14.82-3.81-.41-5.44-2.04-5.44-5.98s-1.36-6.26-4.49-6.26-5.44,4.35-5.85,6.66c-.54,11.7-.82,23.53.41,35.77.54,5.58.54,11.29-9.25,11.29h-10.47c-5.58,0-7.62-2.86-8.57-6.26-1.22-2.86-1.09-6.53-.95-10.47Z"/>
  <path class="cls-2" d="M302.55,14.53c-.27-10.34-2.04-12.92,12.1-12.92s17.27,8.3,16.86,15.78c-.27,5.98-1.77,15.91-2.86,20.54l1.5.41c2.18-7.34,10.34-16.32,24.48-16.32,13.06,0,23.26,8.3,23.94,20.4.95,16.18-14.42,21.22-14.42,21.22,2.04,4.49,9.25,17.14,12.24,21.49,2.45,4.22,5.03,7.48,5.03,7.48,0,0-3.26,6.94-15.64,6.94-11.56,0-15.37-4.49-18.09-9.52-3.67-6.66-7.48-20.13-9.66-27.74l.95-1.77c6.39-.82,10.88-3.54,10.61-9.11-.27-4.62-4.49-7.07-8.7-7.07-6.53,0-11.02,6.53-11.02,15.78,0,4.35.14,16.05.41,22.44.14,6.66,3.81,15.64-8.7,15.64h-10.47c-9.66,0-9.93-7.89-9.66-13.87.68-15.37,1.09-65.28,1.09-69.77Z"/>
  <path class="cls-2" d="M396.12,75.46s8.57,4.49,19.99,4.49c4.22,0,8.16-1.36,8.16-4.62s-3.13-4.62-9.25-6.39l-6.8-1.9c-15.64-4.22-18.63-12.78-18.63-20.26,0-16.18,13.19-24.75,32.78-24.75,21.62,0,27.61,4.76,27.88,9.38.14,4.22-4.76,13.87-6.12,14.42,0,0-8.16-4.22-17.82-4.22-3.54,0-7.89.54-7.89,4.08,0,2.72,1.9,4.22,6.94,5.44l7.89,2.04c16.18,3.81,20.81,11.97,20.81,21.22,0,16.32-14.69,25.16-35.63,25.16-22.3,0-27.61-5.44-27.61-11.02-.14-6.26,4.9-12.78,5.3-13.06Z"/>
  <path class="cls-1" d="M211.58,119.93c0,.14-.02.16-.14.16-.11,0-.67-.04-2.4-.04h-1.55v1.95h1.12c1.58,0,2.11-.04,2.21-.04.13,0,.14.02.14.14,0,.09-.04.59-.04,1.78v.59c0,.95.02,1.53.02,1.98,0,.5-.05.81-.38,1.08-.25.2-.61.27-1.46.27q-.34,0-.41-.34c-.05-.25-.16-.49-.31-.7.38.04.63.05.99.05s.52-.13.52-.54v-3.37h-2.41v2.92c0,2.25.04,3.26.04,3.35,0,.13-.02.14-.14.14h-.83c-.13,0-.14-.02-.14-.14,0-.09.04-1.08.04-3.33v-2.93h-2.38v2.88c0,1.22.04,1.78.04,1.89s-.02.13-.14.13h-.81c-.13,0-.14-.02-.14-.13s.04-.61.04-1.91v-2.02c0-1.17-.04-1.55-.04-1.66,0-.13.02-.14.14-.14.11,0,.63.04,2.21.04h1.08v-1.95h-1.84c-1.73,0-2.3.04-2.39.04-.13,0-.14-.02-.14-.16v-.72c0-.13.02-.14.14-.14.09,0,.67.04,2.39.04h1.84v-2.14h-2.2c-.23.5-.5.99-.85,1.48-.09.16-.14.23-.22.23-.05,0-.13-.05-.23-.13-.22-.14-.45-.25-.65-.31.86-1.1,1.42-2.36,1.67-3.47.04-.18.07-.43.09-.67.36.07.67.16.95.27.16.05.2.09.2.16s-.05.14-.11.22c-.09.11-.13.2-.2.41-.07.27-.16.56-.27.86h1.8v-.97c0-.74-.02-1.1-.13-1.62.47.02.83.05,1.17.11.11.02.2.05.2.14,0,.11-.04.2-.09.31-.09.2-.11.49-.11,1.04v.99h1.1c1.42,0,1.89-.04,1.98-.04.11,0,.13.02.13.14v.72c0,.13-.02.14-.13.14-.09,0-.56-.04-1.98-.04h-1.1v2.14h1.55c1.73,0,2.29-.04,2.4-.04.13,0,.14.02.14.14v.72ZM212.66,117.3c0-1.24-.02-1.82-.13-2.43.4.02.79.05,1.15.09.13.02.2.07.2.14,0,.11-.07.2-.11.31-.07.22-.07.54-.07,1.86v4.9c0,1.57.04,2.21.04,2.32,0,.13-.02.14-.14.14h-.83c-.13,0-.14-.02-.14-.14,0-.11.04-.76.04-2.32v-4.86ZM216.19,115.73c0-1.06-.02-1.58-.13-2.18.43.02.83.05,1.19.11.14.02.22.07.22.14,0,.14-.05.22-.11.34-.07.2-.09.54-.09,1.57v8.84c0,.99.02,2.03.02,2.72,0,.77-.13,1.19-.5,1.46-.43.27-.79.34-2.4.34q-.34,0-.41-.36c-.09-.32-.22-.59-.36-.85.58.07.97.11,1.64.11.7,0,.94-.13.94-.86v-11.38Z"/>
  <path class="cls-1" d="M222.7,121.68c0-.7.02-1.76.04-2.67-.58.88-1.22,1.75-1.98,2.54-.11.11-.16.16-.22.16s-.11-.05-.16-.18c-.18-.36-.32-.56-.5-.72,2.02-2.02,3.31-4.39,4.07-6.55.16-.43.23-.86.27-1.21.45.13.79.23,1.1.38.14.07.2.13.2.22s-.04.14-.14.23c-.11.09-.22.27-.36.68-.36.9-.76,1.8-1.22,2.68v9.11c0,1.89.04,2.72.04,2.81,0,.13-.02.14-.13.14h-.88c-.13,0-.14-.02-.14-.14,0-.09.04-.92.04-2.81v-4.68ZM236.08,117.37c0,.13-.02.14-.14.14-.09,0-.63-.04-2.29-.04h-3.15v2.68h2.81c1.28,0,1.67-.02,1.76-.02.13,0,.14.02.14.13v.76c0,.13-.02.14-.14.14-.09,0-.49-.04-1.76-.04h-2.81v2.74h2.81c1.31,0,1.71-.04,1.82-.04.13,0,.14.02.14.14v.76c0,.13-.02.14-.14.14-.11,0-.5-.04-1.82-.04h-2.81v1.57c0,1.87.04,2.72.04,2.81,0,.11-.02.13-.14.13h-.86c-.13,0-.14-.02-.14-.13s.04-.94.04-2.81v-8.93h-1.48c-.61,1.19-1.39,2.43-2.23,3.44-.11.14-.16.22-.23.22-.05,0-.11-.07-.2-.22-.18-.25-.36-.41-.54-.52,1.53-1.76,2.9-4.34,3.42-6.01.14-.47.22-.9.23-1.26.45.11.77.2,1.1.32.14.05.23.11.23.2,0,.11-.04.18-.14.27s-.23.32-.38.74c-.2.56-.47,1.19-.77,1.85h5.22c1.66,0,2.2-.04,2.29-.04.13,0,.14.02.14.14v.76Z"/>
  <path class="cls-1" d="M244.28,117.95c0,.13-.02.14-.14.14-.09,0-.47-.04-1.73-.04h-.09v3.69c.61-.31,1.24-.65,1.93-1.06-.02.25-.02.45.02.72.05.36.04.36-.29.54-.54.29-1.08.58-1.66.86v3.28c0,2.14.04,3.1.04,3.19,0,.13-.02.13-.14.13h-.83c-.13,0-.14,0-.14-.13,0-.11.04-1.04.04-3.17v-2.79c-.52.23-1.04.49-1.6.72-.36.16-.52.27-.61.36-.07.07-.18.14-.25.14s-.14-.04-.2-.14c-.16-.31-.31-.63-.45-1.03.47-.11.99-.27,1.6-.5.5-.2,1.01-.4,1.51-.61v-4.2h-1.57c-.13.79-.29,1.6-.52,2.32-.05.2-.07.27-.14.27s-.14-.04-.29-.11c-.18-.07-.47-.14-.65-.18.61-1.64.83-3.28.9-4.66.04-.36.02-.68-.02-1.01.31.04.7.09.97.14.16.04.22.11.22.16,0,.09-.02.13-.07.23-.05.13-.09.27-.11.49l-.14,1.39h1.42v-1.46c0-1.28-.02-1.76-.13-2.47.45.02.79.04,1.15.09.13.02.2.07.2.16,0,.11-.04.18-.07.32-.07.22-.11.67-.11,1.85v1.5h.09c1.26,0,1.64-.04,1.73-.04.13,0,.14.02.14.13v.76ZM251.38,116.76c1.51,0,2-.04,2.09-.04.14,0,.18.05.18.18-.02.41-.04.83-.04,1.22-.04,3.66-.2,5.98-.58,8.32-.29,1.78-.86,2.74-2.3,2.74-.41,0-1.03-.04-1.6-.09q-.34-.04-.41-.41c-.07-.34-.14-.58-.27-.81.83.14,1.48.22,2.12.22.92,0,1.26-.81,1.44-1.98.34-2.21.54-4.36.58-8.41h-.94c-1.19,5.04-3.03,8.19-6.45,10.7-.13.09-.22.14-.27.14-.07,0-.14-.07-.25-.22-.2-.25-.4-.41-.61-.54,3.51-2.38,5.49-5.44,6.54-10.08h-1.75c-.94,3.17-2.16,4.93-4.12,6.57-.13.11-.2.16-.25.16-.07,0-.14-.07-.25-.2-.18-.22-.41-.4-.61-.49,1.96-1.4,3.44-3.29,4.2-6.05h-1.66c-.41.7-.9,1.39-1.49,2.09-.13.14-.18.22-.25.22s-.13-.05-.25-.18c-.2-.2-.36-.31-.58-.4,1.48-1.55,2.32-3.17,2.83-4.75.18-.58.29-1.03.32-1.51.42.07.7.14,1.04.23.13.04.2.09.2.18,0,.11-.05.18-.14.29-.13.14-.22.43-.36.85-.23.68-.49,1.37-.83,2.05h4.74Z"/>
</svg>