<?xml version="1.0" encoding="UTF-8"?>
<svg id="img" xmlns="http://www.w3.org/2000/svg" viewBox="0 0 72.15 14">
  <defs>
    <style>
      .cls-1 {
        fill: #321d0b;
        stroke-width: 0px;
      }
    </style>
  </defs>
  <path class="cls-1" d="M9.49,2.8h-.12c-.52,2.3-2.14,9.06-2.34,9.98-.14.8-.6,1.02-1.22,1.02h-1.74c-.98,0-1.16-.84-1.32-1.42C2.51,11.52.25,2.56.07,1.52-.05.82-.13.2.81.2h.8c.94,0,1.1.7,1.16,1.04l2.2,10.2h.1c.46-2.16,2.2-9.44,2.42-10.1.14-.66.28-1.14,1.12-1.14h1.64c.84,0,1.06.78,1.12,1.14.24,1.1,1.96,8.26,2.44,10.16h.1c.42-2.08,1.98-9.58,2.1-10.22.14-.68.22-1.08,1.06-1.08h1.16c.68,0,.78.62.64,1.24-.4,1.7-2.52,9.76-2.76,10.74-.14.68-.24,1.62-1.38,1.62h-1.68c-.6,0-1.08-.28-1.22-1.04-.22-.84-1.86-7.9-2.34-9.96Z"/>
  <path class="cls-1" d="M26.87,14c-4.16,0-6.16-3-6.14-7,.02-3.94,1.96-7,6.12-7,3.94,0,6.12,3.04,6.12,7-.04,3.98-2.14,7-6.1,7ZM26.85,2.28c-2.54,0-3.36,2.18-3.36,4.7.02,2.48.82,4.74,3.36,4.74s3.32-2.3,3.32-4.74-.84-4.7-3.32-4.7Z"/>
  <path class="cls-1" d="M43.39,8.76l1.96,2.56c.34.52.7.54,1.22.54.38,1.6-.32,2.14-1.44,2.14s-1.58-.58-2.04-1.34l-2.26-3.44h-2.24c-.02.5-.06,2.88,0,3.44.06.86-.16,1.14-.84,1.14h-1c-.92,0-.94-.82-.92-1.44.04-1.58.06-10.08.04-10.56,0-.68-.18-1.6,1.04-1.6h4.12c3.4,0,5.2,1.88,5.16,4.58,0,2-1.24,3.36-2.8,3.98ZM40.89,2.18h-2.36c-.04,1.14,0,4.4,0,5.18h2.34c1.56,0,2.62-.9,2.62-2.58,0-1.26-.72-2.6-2.6-2.6Z"/>
  <path class="cls-1" d="M60.69,11.86c.36,1.68-.44,2.14-1.62,2.14-1,0-1.52-.44-2.06-1.34-.7-1.06-2.46-3.92-3-4.78h-1.9c0,2.04,0,3.9.02,4.3.04.68.16,1.62-.82,1.62h-1.02c-.94,0-.94-.82-.94-1.44.06-1.58.08-10.08.08-10.54-.02-.68-.36-1.62.86-1.62h1.02c.92,0,.92.8.92,1.42-.04.38-.06,2.28-.08,4.32h2.02c.62-.94,2.76-4.26,3.26-5.08.22-.38.42-.66.92-.66h1.6c.5,0,.78.48.52.94-.6.86-2.98,4.14-4.06,5.84.8,1.36,2.66,3.84,3,4.32.36.52.64.56,1.28.56Z"/>
  <path class="cls-1" d="M68.69,6.08c2.56.7,3.42,1.98,3.46,3.72.06,2.66-2.18,4.2-5.22,4.2-1.7,0-3.04-.44-3.5-.68-.86-.42-1.04-.98-.74-1.78.18-.58.6-.88.6-.88,0,0,1.3,1.12,3.58,1.12,1.54,0,2.5-.76,2.48-1.88,0-.8-.72-1.4-2.1-1.74l-1.72-.44c-1.78-.46-3.22-1.42-3.26-3.54-.04-2.44,1.88-4.18,4.9-4.18,1.8,0,3.04.46,3.54.74.68.36.96.82.54,1.76-.2.44-.5.72-.5.72,0,0-1.52-1-3.48-1-1.52,0-2.26.76-2.26,1.84.02.9.96,1.28,1.98,1.56l1.7.46Z"/>
</svg>